<svg width="153" height="44" viewBox="0 0 153 44" fill="none" xmlns="http://www.w3.org/2000/svg">
<path d="M151.561 38.9255C151.561 41.2704 149.622 43.1697 147.224 43.1697H5.28814C2.89104 43.1697 0.945312 41.2704 0.945312 38.9255V5.07978C0.945312 2.73607 2.89104 0.830078 5.28814 0.830078H147.222C149.622 0.830078 151.56 2.73607 151.56 5.07978L151.561 38.9255Z" fill="white"/>
<path d="M146.764 0.881376C149.376 0.881376 151.501 2.9535 151.501 5.5V38.5C151.501 41.0465 149.376 43.1186 146.764 43.1186H5.73868C3.12689 43.1186 1.00163 41.0465 1.00163 38.5V5.5C1.00163 2.9535 3.12689 0.881376 5.73868 0.881376H146.764ZM146.764 2.32537e-06H5.73868C2.63753 2.32537e-06 0.0976562 2.47638 0.0976562 5.5V38.5C0.0976562 41.5236 2.63753 44 5.73868 44H146.764C149.865 44 152.405 41.5236 152.405 38.5V5.5C152.405 2.47638 149.865 2.32537e-06 146.764 2.32537e-06Z" fill="white"/>
<path d="M34.0899 21.7616C34.0572 18.2163 37.0673 16.4915 37.2049 16.4112C35.5002 13.9879 32.8579 13.6568 31.9294 13.6304C29.7102 13.4027 27.5576 14.9251 26.4272 14.9251C25.2741 14.9251 23.5333 13.6524 21.6571 13.6898C19.2427 13.7261 16.9841 15.089 15.7453 17.2054C13.1888 21.5207 15.0955 27.8622 17.5448 31.3503C18.77 33.0586 20.2017 34.966 22.0757 34.8989C23.909 34.8252 24.5938 33.7593 26.8062 33.7593C28.9983 33.7593 29.6414 34.8989 31.5526 34.856C33.5202 34.8252 34.7589 33.14 35.9413 31.4163C37.3572 29.4583 37.9258 27.53 37.9484 27.431C37.9021 27.4156 34.1272 26.0109 34.0899 21.7616Z" fill="black"/>
<path d="M30.4797 11.3358C31.4657 10.1335 32.1404 8.49779 31.9531 6.83789C30.5259 6.89949 28.7411 7.80039 27.7133 8.97629C26.804 10.0125 25.9917 11.7109 26.2015 13.3081C27.8047 13.4247 29.4507 12.5194 30.4797 11.3358Z" fill="black"/>
<path d="M60.6207 34.6544H58.0585L56.6551 30.3545H51.7767L50.4398 34.6544H47.9453L52.7785 20.0156H55.7638L60.6207 34.6544ZM56.232 28.5505L54.9627 24.728C54.8285 24.3375 54.5769 23.4179 54.2057 21.9703H54.1606C54.0128 22.5929 53.7747 23.5125 53.4476 24.728L52.2009 28.5505H56.232Z" fill="black"/>
<path d="M73.0507 29.2456C73.0507 31.0408 72.5532 32.4598 71.5581 33.5015C70.6668 34.4288 69.5601 34.8919 68.2389 34.8919C66.8129 34.8919 65.7885 34.3925 65.1646 33.3937H65.1195V38.9542H62.7141V27.5725C62.7141 26.4439 62.6837 25.2856 62.625 24.0976H64.7404L64.8746 25.7707H64.9198C65.7219 24.5101 66.9393 23.8809 68.5729 23.8809C69.85 23.8809 70.9162 24.3726 71.7691 25.3571C72.6243 26.3427 73.0507 27.6385 73.0507 29.2456ZM70.6003 29.3314C70.6003 28.304 70.3634 27.457 69.8873 26.7904C69.3672 26.0952 68.6688 25.7476 67.7933 25.7476C67.1999 25.7476 66.6606 25.9412 66.1788 26.3229C65.696 26.7079 65.3801 27.2106 65.2323 27.8332C65.1578 28.1236 65.1206 28.3612 65.1206 28.5482V30.3082C65.1206 31.076 65.362 31.7239 65.8449 32.253C66.3278 32.7821 66.9551 33.0461 67.7267 33.0461C68.6327 33.0461 69.3378 32.7051 69.8421 32.0253C70.3476 31.3444 70.6003 30.4468 70.6003 29.3314Z" fill="black"/>
<path d="M85.5027 29.2456C85.5027 31.0408 85.0052 32.4598 84.009 33.5015C83.1188 34.4288 82.0121 34.8919 80.6909 34.8919C79.2649 34.8919 78.2405 34.3925 77.6177 33.3937H77.5726V38.9542H75.1673V27.5725C75.1673 26.4439 75.1368 25.2856 75.0781 24.0976H77.1935L77.3278 25.7707H77.3729C78.1739 24.5101 79.3913 23.8809 81.026 23.8809C82.302 23.8809 83.3682 24.3726 84.2234 25.3571C85.0752 26.3427 85.5027 27.6385 85.5027 29.2456ZM83.0523 29.3314C83.0523 28.304 82.8142 27.457 82.3381 26.7904C81.818 26.0952 81.1219 25.7476 80.2453 25.7476C79.6507 25.7476 79.1126 25.9412 78.6297 26.3229C78.1468 26.7079 77.8321 27.2106 77.6843 27.8332C77.6109 28.1236 77.5726 28.3612 77.5726 28.5482V30.3082C77.5726 31.076 77.814 31.7239 78.2946 32.253C78.7775 32.781 79.4048 33.0461 80.1787 33.0461C81.0847 33.0461 81.7898 32.7051 82.2941 32.0253C82.7996 31.3444 83.0523 30.4468 83.0523 29.3314Z" fill="black"/>
<path d="M99.4238 30.5489C99.4238 31.7941 98.9805 32.8072 98.0903 33.5893C97.1121 34.444 95.7504 34.8708 94.0006 34.8708C92.385 34.8708 91.0898 34.5672 90.1094 33.9589L90.6667 32.0042C91.7227 32.6268 92.8814 32.9392 94.1438 32.9392C95.0498 32.9392 95.7549 32.739 96.2615 32.3408C96.7658 31.9426 97.0174 31.408 97.0174 30.7414C97.0174 30.1474 96.8098 29.6469 96.3935 29.241C95.9794 28.8351 95.2878 28.4578 94.3221 28.1091C91.6934 27.1532 90.3802 25.7529 90.3802 23.9115C90.3802 22.7081 90.8405 21.7214 91.7622 20.9536C92.6806 20.1847 93.9058 19.8008 95.4379 19.8008C96.8041 19.8008 97.9391 20.0329 98.8451 20.496L98.2437 22.4078C97.3976 21.959 96.4409 21.7346 95.3702 21.7346C94.524 21.7346 93.8629 21.9381 93.3891 22.3429C92.9886 22.7048 92.7877 23.1459 92.7877 23.6684C92.7877 24.247 93.0168 24.7255 93.4771 25.1017C93.8776 25.4493 94.6053 25.8255 95.6613 26.2314C96.9531 26.7385 97.9019 27.3314 98.5123 28.0112C99.1204 28.6888 99.4238 29.5369 99.4238 30.5489Z" fill="black"/>
<path d="M107.378 25.8588H104.727V30.9837C104.727 32.2872 105.194 32.9384 106.131 32.9384C106.56 32.9384 106.917 32.9021 107.199 32.8295L107.266 34.6105C106.792 34.7832 106.168 34.8701 105.395 34.8701C104.445 34.8701 103.703 34.5874 103.167 34.0231C102.633 33.4577 102.365 32.5095 102.365 31.1774V25.8567H100.785V24.0966H102.365V22.1639L104.727 21.4688V24.0966H107.378V25.8588Z" fill="black"/>
<path d="M119.338 29.2893C119.338 30.9118 118.862 32.2439 117.912 33.2856C116.916 34.3581 115.594 34.8927 113.946 34.8927C112.357 34.8927 111.092 34.379 110.149 33.3516C109.206 32.3242 108.734 31.0273 108.734 29.4642C108.734 27.8285 109.22 26.4887 110.193 25.447C111.165 24.4042 112.476 23.8828 114.124 23.8828C115.712 23.8828 116.991 24.3965 117.955 25.425C118.878 26.4227 119.338 27.7108 119.338 29.2893ZM116.843 29.3652C116.843 28.3917 116.63 27.5568 116.197 26.8605C115.693 26.0179 114.972 25.5977 114.038 25.5977C113.071 25.5977 112.337 26.019 111.832 26.8605C111.4 27.5579 111.187 28.406 111.187 29.4092C111.187 30.3827 111.4 31.2176 111.832 31.9128C112.353 32.7554 113.079 33.1756 114.017 33.1756C114.935 33.1756 115.656 32.7466 116.176 31.8908C116.619 31.1813 116.843 30.3376 116.843 29.3652Z" fill="black"/>
<path d="M127.159 26.1601C126.921 26.1172 126.668 26.0952 126.401 26.0952C125.555 26.0952 124.901 26.4065 124.44 27.0302C124.04 27.5802 123.839 28.2754 123.839 29.1147V34.6532H121.435L121.457 27.4218C121.457 26.2052 121.427 25.0975 121.367 24.0987H123.462L123.55 26.1183H123.617C123.871 25.4242 124.271 24.8654 124.82 24.4463C125.355 24.069 125.934 23.8809 126.558 23.8809C126.78 23.8809 126.981 23.8963 127.159 23.9238V26.1601Z" fill="black"/>
<path d="M137.914 28.8762C137.914 29.2964 137.886 29.6506 137.826 29.9399H130.61C130.639 30.9827 130.987 31.7802 131.657 32.3302C132.265 32.8219 133.052 33.0683 134.017 33.0683C135.086 33.0683 136.061 32.9022 136.937 32.5689L137.314 34.1969C136.29 34.6325 135.08 34.8492 133.685 34.8492C132.006 34.8492 130.688 34.3674 129.729 33.4049C128.772 32.4424 128.293 31.1499 128.293 29.5285C128.293 27.9368 128.739 26.6113 129.631 25.5542C130.565 24.4256 131.828 23.8613 133.416 23.8613C134.976 23.8613 136.158 24.4256 136.96 25.5542C137.595 26.4507 137.914 27.5595 137.914 28.8762ZM135.621 28.2679C135.636 27.5727 135.48 26.9721 135.154 26.465C134.737 25.8127 134.098 25.4871 133.237 25.4871C132.45 25.4871 131.811 25.805 131.322 26.443C130.922 26.9501 130.684 27.5584 130.61 28.2668H135.621V28.2679Z" fill="black"/>
<path d="M55.438 11.0086C55.438 12.3033 55.0397 13.2779 54.2443 13.9324C53.5076 14.5363 52.4606 14.8388 51.1045 14.8388C50.4321 14.8388 49.8567 14.8102 49.375 14.753V7.6789C50.0034 7.5799 50.6803 7.5293 51.4114 7.5293C52.7032 7.5293 53.6769 7.8032 54.3335 8.351C55.0691 8.9703 55.438 9.8558 55.438 11.0086ZM54.1913 11.0405C54.1913 10.2012 53.9634 9.5577 53.5076 9.1089C53.0518 8.6612 52.3862 8.4368 51.5096 8.4368C51.1373 8.4368 50.8202 8.461 50.5574 8.5116V13.8895C50.7029 13.9115 50.9692 13.9214 51.3561 13.9214C52.261 13.9214 52.9593 13.6761 53.4512 13.1855C53.9431 12.6949 54.1913 11.9799 54.1913 11.0405Z" fill="black"/>
<path d="M62.0488 12.1398C62.0488 12.9373 61.8152 13.5907 61.3482 14.1033C60.8585 14.6302 60.2098 14.8931 59.3997 14.8931C58.619 14.8931 57.9974 14.6412 57.5337 14.1352C57.0711 13.6303 56.8398 12.9934 56.8398 12.2256C56.8398 11.4226 57.0779 10.7637 57.5563 10.2522C58.0346 9.74067 58.6777 9.48438 59.4877 9.48438C60.2685 9.48438 60.8957 9.73627 61.3707 10.2412C61.822 10.7318 62.0488 11.3654 62.0488 12.1398ZM60.8224 12.1772C60.8224 11.6987 60.7164 11.2884 60.5054 10.9463C60.2572 10.5327 59.9041 10.3259 59.4449 10.3259C58.9699 10.3259 58.6089 10.5327 58.3607 10.9463C58.1486 11.2884 58.0436 11.7053 58.0436 12.1981C58.0436 12.6766 58.1497 13.0869 58.3607 13.429C58.6168 13.8426 58.9733 14.0494 59.4336 14.0494C59.8849 14.0494 60.2391 13.8393 60.4941 13.418C60.713 13.0693 60.8224 12.6557 60.8224 12.1772Z" fill="black"/>
<path d="M70.9127 9.58984L69.2486 14.7752H68.1655L67.4762 12.5235C67.3013 11.9614 67.1591 11.4026 67.0486 10.8482H67.0271C66.9245 11.418 66.7823 11.9757 66.5995 12.5235L65.8673 14.7752H64.7718L63.207 9.58984H64.4221L65.0234 12.0549C65.169 12.6379 65.2886 13.1934 65.3845 13.7192H65.4059C65.4939 13.2858 65.6394 12.7336 65.8448 12.0659L66.5995 9.59094H67.563L68.2862 12.0131C68.4611 12.6038 68.6032 13.1725 68.7127 13.7203H68.7454C68.8255 13.1868 68.9462 12.6181 69.1064 12.0131L69.7517 9.59094H70.9127V9.58984Z" fill="black"/>
<path d="M77.0406 14.7748H75.8583V11.8048C75.8583 10.8896 75.5018 10.432 74.7865 10.432C74.4356 10.432 74.1524 10.5574 73.9324 10.8093C73.7147 11.0612 73.6041 11.3582 73.6041 11.6981V14.7737H72.4218V11.0711C72.4218 10.6157 72.4071 10.1218 72.3789 9.58717H73.418L73.4733 10.3979H73.506C73.6436 10.146 73.849 9.93807 74.1186 9.77197C74.439 9.57837 74.7978 9.48047 75.1904 9.48047C75.6868 9.48047 76.0997 9.63667 76.428 9.95017C76.8364 10.3341 77.0406 10.9072 77.0406 11.6684V14.7748Z" fill="black"/>
<path d="M80.3023 14.7756H79.1211V7.21094H80.3023V14.7756Z" fill="black"/>
<path d="M87.2636 12.1398C87.2636 12.9373 87.0301 13.5907 86.563 14.1033C86.0734 14.6302 85.4235 14.8931 84.6146 14.8931C83.8327 14.8931 83.2111 14.6412 82.7485 14.1352C82.286 13.6303 82.0547 12.9934 82.0547 12.2256C82.0547 11.4226 82.2927 10.7637 82.7711 10.2522C83.2495 9.74067 83.8925 9.48438 84.7015 9.48438C85.4833 9.48438 86.1095 9.73627 86.5856 10.2412C87.0368 10.7318 87.2636 11.3654 87.2636 12.1398ZM86.0361 12.1772C86.0361 11.6987 85.9301 11.2884 85.7191 10.9463C85.472 10.5327 85.1178 10.3259 84.6597 10.3259C84.1836 10.3259 83.8226 10.5327 83.5755 10.9463C83.3634 11.2884 83.2585 11.7053 83.2585 12.1981C83.2585 12.6766 83.3645 13.0869 83.5755 13.429C83.8316 13.8426 84.1881 14.0494 84.6484 14.0494C85.0997 14.0494 85.4528 13.8393 85.7078 13.418C85.9278 13.0693 86.0361 12.6557 86.0361 12.1772Z" fill="black"/>
<path d="M92.9833 14.7754H91.9217L91.8337 14.1781H91.801C91.4377 14.6544 90.9199 14.8931 90.2474 14.8931C89.7454 14.8931 89.3392 14.7358 89.0335 14.4234C88.756 14.1396 88.6172 13.7865 88.6172 13.3674C88.6172 12.7338 88.888 12.2509 89.4329 11.9165C89.9767 11.5821 90.7416 11.4182 91.7265 11.4259V11.3291C91.7265 10.646 91.3587 10.305 90.622 10.305C90.0974 10.305 89.6348 10.4337 89.2354 10.6889L88.9951 9.93207C89.4893 9.63397 90.0997 9.48438 90.8194 9.48438C92.2094 9.48438 92.9066 10.1994 92.9066 11.6294V13.539C92.9066 14.0571 92.9326 14.4696 92.9833 14.7754ZM91.7558 12.9934V12.1937C90.4516 12.1717 89.7995 12.5204 89.7995 13.2387C89.7995 13.5093 89.874 13.7117 90.0263 13.847C90.1786 13.9823 90.3727 14.0494 90.604 14.0494C90.8634 14.0494 91.106 13.9691 91.3271 13.8096C91.5494 13.649 91.6859 13.4455 91.7367 13.1958C91.7491 13.1397 91.7558 13.0715 91.7558 12.9934Z" fill="black"/>
<path d="M99.7019 14.7756H98.6527L98.5974 13.9429H98.5647C98.2296 14.5765 97.6587 14.8933 96.8566 14.8933C96.2158 14.8933 95.6821 14.648 95.259 14.1574C94.836 13.6668 94.625 13.0299 94.625 12.2478C94.625 11.4085 94.854 10.7287 95.3143 10.2095C95.76 9.72554 96.306 9.48354 96.9559 9.48354C97.67 9.48354 98.1698 9.71784 98.4541 10.1875H98.4767V7.21094H99.6602V13.3786C99.6602 13.8835 99.6737 14.3488 99.7019 14.7756ZM98.4767 12.5888V11.7242C98.4767 11.5746 98.4654 11.4536 98.444 11.3612C98.3774 11.084 98.2341 10.8508 98.0164 10.6627C97.7964 10.4746 97.5312 10.38 97.2255 10.38C96.7844 10.38 96.4391 10.5505 96.1853 10.8926C95.9337 11.2347 95.8062 11.6714 95.8062 12.2049C95.8062 12.7175 95.9269 13.1333 96.1695 13.4534C96.4256 13.7944 96.7708 13.9649 97.2029 13.9649C97.591 13.9649 97.9013 13.823 98.1371 13.5381C98.365 13.2752 98.4767 12.9584 98.4767 12.5888Z" fill="black"/>
<path d="M109.814 12.1398C109.814 12.9373 109.581 13.5907 109.114 14.1033C108.624 14.6302 107.977 14.8931 107.165 14.8931C106.386 14.8931 105.764 14.6412 105.299 14.1352C104.837 13.6303 104.605 12.9934 104.605 12.2256C104.605 11.4226 104.844 10.7637 105.322 10.2522C105.8 9.74067 106.443 9.48438 107.254 9.48438C108.034 9.48438 108.662 9.73627 109.136 10.2412C109.588 10.7318 109.814 11.3654 109.814 12.1398ZM108.589 12.1772C108.589 11.6987 108.483 11.2884 108.272 10.9463C108.023 10.5327 107.671 10.3259 107.21 10.3259C106.737 10.3259 106.376 10.5327 106.126 10.9463C105.914 11.2884 105.809 11.7053 105.809 12.1981C105.809 12.6766 105.915 13.0869 106.126 13.429C106.382 13.8426 106.739 14.0494 107.199 14.0494C107.65 14.0494 108.006 13.8393 108.261 13.418C108.479 13.0693 108.589 12.6557 108.589 12.1772Z" fill="black"/>
<path d="M116.172 14.7748H114.991V11.8048C114.991 10.8896 114.635 10.432 113.918 10.432C113.567 10.432 113.284 10.5574 113.065 10.8093C112.846 11.0612 112.737 11.3582 112.737 11.6981V14.7737H111.553V11.0711C111.553 10.6157 111.54 10.1218 111.512 9.58717H112.55L112.605 10.3979H112.638C112.776 10.146 112.982 9.93807 113.25 9.77197C113.572 9.57837 113.929 9.48047 114.323 9.48047C114.818 9.48047 115.231 9.63667 115.56 9.95017C115.969 10.3341 116.172 10.9072 116.172 11.6684V14.7748Z" fill="black"/>
<path d="M124.13 10.4537H122.828V12.9727C122.828 13.6129 123.059 13.933 123.517 13.933C123.729 13.933 123.905 13.9154 124.044 13.8791L124.074 14.7536C123.841 14.8394 123.534 14.8823 123.156 14.8823C122.689 14.8823 122.326 14.7437 122.063 14.4665C121.799 14.1893 121.668 13.7229 121.668 13.0684V10.4537H120.891V9.59023H121.668V8.63983L122.827 8.29883V9.58913H124.129V10.4537H124.13Z" fill="black"/>
<path d="M130.388 14.7756H129.205V11.8276C129.205 10.8981 128.848 10.4328 128.134 10.4328C127.586 10.4328 127.211 10.7023 127.006 11.2413C126.971 11.3546 126.951 11.4932 126.951 11.656V14.7745H125.77V7.21094H126.951V10.336H126.973C127.346 9.76734 127.879 9.48354 128.571 9.48354C129.061 9.48354 129.466 9.63974 129.787 9.95324C130.188 10.3437 130.388 10.9245 130.388 11.6923V14.7756Z" fill="black"/>
<path d="M136.845 11.9375C136.845 12.1443 136.83 12.3181 136.801 12.46H133.256C133.271 12.9726 133.441 13.3631 133.769 13.6337C134.069 13.8757 134.456 13.9967 134.93 13.9967C135.454 13.9967 135.933 13.9153 136.364 13.7514L136.549 14.5522C136.044 14.7656 135.451 14.8723 134.764 14.8723C133.94 14.8723 133.292 14.6358 132.822 14.1628C132.351 13.6898 132.117 13.0551 132.117 12.2587C132.117 11.4766 132.335 10.8254 132.774 10.3062C133.232 9.75181 133.851 9.47461 134.633 9.47461C135.398 9.47461 135.979 9.75181 136.372 10.3062C136.689 10.7462 136.845 11.2907 136.845 11.9375ZM135.717 11.6394C135.726 11.2973 135.648 11.0025 135.488 10.7539C135.283 10.4338 134.97 10.2732 134.547 10.2732C134.161 10.2732 133.847 10.4294 133.606 10.7429C133.41 10.9926 133.294 11.2907 133.256 11.6394H135.717Z" fill="black"/>
</svg>
