<svg width="166" height="48" viewBox="0 0 166 48" fill="none" xmlns="http://www.w3.org/2000/svg">
<path d="M165.078 42.4138C165.078 44.9688 162.966 47.0384 160.352 47.0384H5.69687C3.08495 47.0384 0.964844 44.9688 0.964844 42.4138V5.53485C0.964844 2.9811 3.08495 0.904297 5.69687 0.904297H160.351C162.966 0.904297 165.077 2.9811 165.077 5.53485L165.078 42.4138Z" fill="black"/>
<path d="M159.854 0.960485C162.7 0.960485 165.015 3.21831 165.015 5.99303V41.9505C165.015 44.7252 162.7 46.983 159.854 46.983H6.18954C3.34368 46.983 1.02796 44.7252 1.02796 41.9505V5.99303C1.02796 3.21831 3.34368 0.960485 6.18954 0.960485H159.854ZM159.854 0.000122783H6.18954C2.81046 0.000122783 0.0429688 2.69843 0.0429688 5.99303V41.9505C0.0429688 45.2451 2.81046 47.9434 6.18954 47.9434H159.854C163.233 47.9434 166 45.2451 166 41.9505V5.99303C166 2.69843 163.233 0.000122783 159.854 0.000122783Z" fill="black"/>
<path d="M37.081 23.7123C37.0454 19.8493 40.3252 17.9699 40.4752 17.8824C38.6177 15.2419 35.7386 14.8812 34.7269 14.8524C32.3088 14.6043 29.9633 16.2631 28.7315 16.2631C27.4752 16.2631 25.5783 14.8764 23.534 14.9171C20.9033 14.9567 18.4422 16.4417 17.0924 18.7478C14.3068 23.4498 16.3843 30.3596 19.0531 34.1603C20.3882 36.0217 21.9482 38.1001 23.9901 38.027C25.9877 37.9467 26.7339 36.7852 29.1446 36.7852C31.5331 36.7852 32.2338 38.027 34.3163 37.9802C36.4602 37.9467 37.81 36.1104 39.0983 34.2323C40.6411 32.0988 41.2607 29.9977 41.2853 29.8898C41.2349 29.873 37.1216 28.3424 37.081 23.7123Z" fill="white"/>
<path d="M33.1472 12.3522C34.2216 11.0421 34.9568 9.25983 34.7527 7.45117C33.1976 7.51829 31.2529 8.49993 30.133 9.78121C29.1421 10.9103 28.257 12.7609 28.4857 14.5012C30.2325 14.6283 32.0261 13.6418 33.1472 12.3522Z" fill="white"/>
<path d="M65.991 37.7613H63.1993L61.67 33.076H56.3544L54.8977 37.7613H52.1797L57.4461 21.8105H60.6988L65.991 37.7613ZM61.209 31.1103L59.826 26.9453C59.6797 26.5198 59.4056 25.5178 59.0011 23.9404H58.952C58.7909 24.6188 58.5315 25.6208 58.175 26.9453L56.8167 31.1103H61.209Z" fill="white"/>
<path d="M79.532 31.8689C79.532 33.825 78.9898 35.3712 77.9056 36.5062C76.9344 37.5166 75.7285 38.0212 74.2889 38.0212C72.7351 38.0212 71.6189 37.4771 70.9391 36.3888H70.8899V42.4476H68.269V30.0459C68.269 28.8161 68.2358 27.554 68.1719 26.2596H70.4768L70.6231 28.0826H70.6723C71.5463 26.709 72.8728 26.0234 74.6528 26.0234C76.0444 26.0234 77.2061 26.5592 78.1355 27.6319C79.0673 28.7059 79.532 30.1178 79.532 31.8689ZM76.8619 31.9624C76.8619 30.8429 76.6037 29.92 76.085 29.1937C75.5183 28.4362 74.7573 28.0574 73.8034 28.0574C73.1567 28.0574 72.5691 28.2684 72.0442 28.6843C71.5181 29.1038 71.1739 29.6515 71.0128 30.3299C70.9317 30.6464 70.8911 30.9053 70.8911 31.109V33.0267C70.8911 33.8634 71.1542 34.5693 71.6803 35.1458C72.2065 35.7224 72.89 36.01 73.7308 36.01C74.718 36.01 75.4863 35.6385 76.0358 34.8977C76.5865 34.1558 76.8619 33.1778 76.8619 31.9624Z" fill="white"/>
<path d="M93.101 31.8689C93.101 33.825 92.5589 35.3712 91.4734 36.5062C90.5035 37.5166 89.2976 38.0212 87.858 38.0212C86.3042 38.0212 85.188 37.4771 84.5094 36.3888H84.4602V42.4476H81.8393V30.0459C81.8393 28.8161 81.8061 27.554 81.7422 26.2596H84.0472L84.1934 28.0826H84.2426C85.1154 26.709 86.4419 26.0234 88.2231 26.0234C89.6135 26.0234 90.7752 26.5592 91.707 27.6319C92.6351 28.7059 93.101 30.1178 93.101 31.8689ZM90.431 31.9624C90.431 30.8429 90.1716 29.92 89.6528 29.1937C89.0861 28.4362 88.3276 28.0574 87.3724 28.0574C86.7246 28.0574 86.1382 28.2684 85.6121 28.6843C85.0859 29.1038 84.7429 29.6515 84.5819 30.3299C84.502 30.6464 84.4602 30.9053 84.4602 31.109V33.0267C84.4602 33.8634 84.7233 34.5693 85.247 35.1458C85.7731 35.7212 86.4566 36.01 87.2999 36.01C88.2871 36.01 89.0554 35.6385 89.6049 34.8977C90.1556 34.1558 90.431 33.1778 90.431 31.9624Z" fill="white"/>
<path d="M108.274 33.2875C108.274 34.6443 107.791 35.7482 106.821 36.6004C105.755 37.5317 104.272 37.9967 102.365 37.9967C100.605 37.9967 99.1933 37.6659 98.125 37.0031L98.7323 34.8732C99.8829 35.5516 101.145 35.892 102.521 35.892C103.508 35.892 104.276 35.6739 104.828 35.24C105.378 34.8061 105.652 34.2236 105.652 33.4973C105.652 32.85 105.426 32.3047 104.972 31.8624C104.521 31.4201 103.768 31.009 102.715 30.6291C99.851 29.5875 98.42 28.0617 98.42 26.0553C98.42 24.744 98.9216 23.6689 99.9259 22.8323C100.927 21.9945 102.262 21.5762 103.931 21.5762C105.42 21.5762 106.656 21.8291 107.644 22.3337L106.988 24.4168C106.066 23.9278 105.024 23.6833 103.857 23.6833C102.935 23.6833 102.215 23.905 101.699 24.3461C101.262 24.7404 101.043 25.2211 101.043 25.7904C101.043 26.4208 101.293 26.9422 101.795 27.3521C102.231 27.7309 103.024 28.1408 104.174 28.5831C105.582 29.1356 106.616 29.7817 107.281 30.5224C107.944 31.2607 108.274 32.1848 108.274 33.2875Z" fill="white"/>
<path d="M116.938 28.1761H114.049V33.7603C114.049 35.1806 114.558 35.8902 115.578 35.8902C116.047 35.8902 116.435 35.8506 116.743 35.7715L116.815 37.712C116.299 37.9002 115.619 37.9949 114.777 37.9949C113.742 37.9949 112.933 37.6869 112.349 37.072C111.768 36.4559 111.475 35.4227 111.475 33.9713V28.1737H109.754V26.256H111.475V24.1501L114.049 23.3926V26.256H116.938V28.1761Z" fill="white"/>
<path d="M129.972 31.9145C129.972 33.6824 129.454 35.1339 128.418 36.2689C127.333 37.4375 125.892 38.02 124.096 38.02C122.365 38.02 120.987 37.4603 119.96 36.3408C118.932 35.2213 118.418 33.8082 118.418 32.105C118.418 30.3227 118.947 28.8629 120.007 27.7278C121.066 26.5916 122.494 26.0234 124.29 26.0234C126.021 26.0234 127.414 26.5832 128.465 27.7038C129.471 28.791 129.972 30.1945 129.972 31.9145ZM127.253 31.9972C127.253 30.9364 127.021 30.0267 126.55 29.268C126 28.3499 125.215 27.892 124.197 27.892C123.143 27.892 122.343 28.3511 121.794 29.268C121.323 30.0279 121.091 30.952 121.091 32.0451C121.091 33.1059 121.323 34.0156 121.794 34.7731C122.36 35.6912 123.152 36.149 124.174 36.149C125.174 36.149 125.96 35.6816 126.527 34.7491C127.01 33.976 127.253 33.0567 127.253 31.9972Z" fill="white"/>
<path d="M138.491 28.5069C138.232 28.4602 137.955 28.4362 137.665 28.4362C136.743 28.4362 136.03 28.7754 135.528 29.455C135.092 30.0543 134.873 30.8118 134.873 31.7263V37.7611H132.253L132.278 29.8817C132.278 28.556 132.245 27.3491 132.18 26.2608H134.463L134.558 28.4614H134.631C134.908 27.705 135.344 27.0962 135.941 26.6395C136.525 26.2284 137.156 26.0234 137.836 26.0234C138.078 26.0234 138.297 26.0402 138.491 26.0702V28.5069Z" fill="white"/>
<path d="M150.214 31.4663C150.214 31.9241 150.183 32.3101 150.118 32.6253H142.255C142.286 33.7616 142.666 34.6305 143.396 35.2298C144.059 35.7656 144.916 36.0341 145.968 36.0341C147.132 36.0341 148.194 35.8531 149.149 35.4899L149.56 37.2638C148.444 37.7385 147.126 37.9746 145.605 37.9746C143.776 37.9746 142.34 37.4496 141.295 36.4008C140.253 35.3521 139.73 33.9437 139.73 32.177C139.73 30.4427 140.216 28.9984 141.188 27.8466C142.206 26.6168 143.582 26.002 145.313 26.002C147.013 26.002 148.3 26.6168 149.174 27.8466C149.866 28.8234 150.214 30.0316 150.214 31.4663ZM147.715 30.8035C147.732 30.046 147.561 29.3915 147.206 28.839C146.752 28.1282 146.055 27.7735 145.117 27.7735C144.26 27.7735 143.563 28.1198 143.031 28.815C142.595 29.3676 142.335 30.0304 142.255 30.8023H147.715V30.8035Z" fill="white"/>
<path d="M60.3407 11.9962C60.3407 13.4069 59.9068 14.4689 59.0401 15.182C58.2374 15.84 57.0966 16.1697 55.6189 16.1697C54.8862 16.1697 54.2593 16.1385 53.7344 16.0762V8.36808C54.4191 8.26021 55.1567 8.20508 55.9533 8.20508C57.3609 8.20508 58.4218 8.50352 59.1372 9.10042C59.9387 9.77522 60.3407 10.7401 60.3407 11.9962ZM58.9823 12.0309C58.9823 11.1164 58.734 10.4153 58.2374 9.92624C57.7407 9.43842 57.0154 9.19391 56.0602 9.19391C55.6546 9.19391 55.3091 9.22028 55.0227 9.27541V15.1353C55.1813 15.1592 55.4714 15.17 55.8931 15.17C56.879 15.17 57.6399 14.9027 58.1759 14.3682C58.7119 13.8336 58.9823 13.0545 58.9823 12.0309Z" fill="white"/>
<path d="M67.5429 13.2274C67.5429 14.0963 67.2885 14.8083 66.7795 15.3668C66.246 15.9409 65.5392 16.2274 64.6565 16.2274C63.8058 16.2274 63.1285 15.9529 62.6232 15.4016C62.1192 14.8514 61.8672 14.1575 61.8672 13.3208C61.8672 12.4459 62.1266 11.7279 62.6478 11.1706C63.169 10.6133 63.8697 10.334 64.7524 10.334C65.6031 10.334 66.2866 10.6085 66.8041 11.1586C67.2958 11.6932 67.5429 12.3836 67.5429 13.2274ZM66.2067 13.2681C66.2067 12.7467 66.0911 12.2997 65.8612 11.9269C65.5908 11.4762 65.206 11.2509 64.7057 11.2509C64.1881 11.2509 63.7948 11.4762 63.5243 11.9269C63.2932 12.2997 63.1789 12.7539 63.1789 13.2909C63.1789 13.8123 63.2944 14.2593 63.5243 14.6321C63.8034 15.0828 64.1918 15.3081 64.6934 15.3081C65.1851 15.3081 65.5711 15.0792 65.8489 14.6201C66.0874 14.2402 66.2067 13.7895 66.2067 13.2681Z" fill="white"/>
<path d="M77.2009 10.4492L75.3877 16.0993H74.2075L73.4564 13.6458C73.2659 13.0334 73.111 12.4245 72.9905 11.8204H72.9671C72.8553 12.4413 72.7004 13.0489 72.5012 13.6458L71.7034 16.0993H70.5097L68.8047 10.4492H70.1287L70.7839 13.1352C70.9425 13.7705 71.0728 14.3758 71.1773 14.9487H71.2006C71.2965 14.4765 71.4551 13.8748 71.6788 13.1472L72.5012 10.4504H73.5511L74.3391 13.0897C74.5296 13.7333 74.6845 14.353 74.8037 14.9499H74.8394C74.9267 14.3686 75.0582 13.7489 75.2328 13.0897L75.9359 10.4504H77.2009V10.4492Z" fill="white"/>
<path d="M83.8803 16.1008H82.592V12.8646C82.592 11.8674 82.2035 11.3688 81.4241 11.3688C81.0418 11.3688 80.7333 11.5054 80.4935 11.7799C80.2563 12.0544 80.1358 12.378 80.1358 12.7484V16.0996H78.8475V12.0652C78.8475 11.569 78.8315 11.0308 78.8008 10.4483H79.933L79.9932 11.3316H80.0289C80.1788 11.0572 80.4026 10.8306 80.6964 10.6497C81.0455 10.4387 81.4364 10.332 81.8642 10.332C82.4051 10.332 82.855 10.5022 83.2128 10.8438C83.6578 11.2621 83.8803 11.8866 83.8803 12.716V16.1008Z" fill="white"/>
<path d="M87.4316 16.1001H86.1445V7.85742H87.4316V16.1001Z" fill="white"/>
<path d="M95.0156 13.2274C95.0156 14.0963 94.7611 14.8083 94.2522 15.3668C93.7187 15.9409 93.0106 16.2274 92.1292 16.2274C91.2772 16.2274 90.5999 15.9529 90.0959 15.4016C89.5919 14.8514 89.3398 14.1575 89.3398 13.3208C89.3398 12.4459 89.5992 11.7279 90.1205 11.1706C90.6417 10.6133 91.3424 10.334 92.2238 10.334C93.0757 10.334 93.758 10.6085 94.2768 11.1586C94.7685 11.6932 95.0156 12.3836 95.0156 13.2274ZM93.6781 13.2681C93.6781 12.7467 93.5625 12.2997 93.3327 11.9269C93.0634 11.4762 92.6774 11.2509 92.1783 11.2509C91.6596 11.2509 91.2662 11.4762 90.997 11.9269C90.7658 12.2997 90.6515 12.7539 90.6515 13.2909C90.6515 13.8123 90.7671 14.2593 90.997 14.6321C91.276 15.0828 91.6645 15.3081 92.166 15.3081C92.6578 15.3081 93.0425 15.0792 93.3204 14.6201C93.5601 14.2402 93.6781 13.7895 93.6781 13.2681Z" fill="white"/>
<path d="M101.254 16.0992H100.097L100.001 15.4483H99.9652C99.5694 15.9673 99.0051 16.2274 98.2724 16.2274C97.7254 16.2274 97.2829 16.056 96.9497 15.7156C96.6473 15.4064 96.4961 15.0216 96.4961 14.565C96.4961 13.8746 96.7911 13.3484 97.3849 12.984C97.9774 12.6197 98.8109 12.4411 99.8841 12.4495V12.344C99.8841 11.5997 99.4833 11.2281 98.6806 11.2281C98.109 11.2281 97.6049 11.3684 97.1698 11.6464L96.9079 10.8218C97.4464 10.497 98.1114 10.334 98.8957 10.334C100.41 10.334 101.17 11.1131 101.17 12.6712V14.752C101.17 15.3165 101.198 15.766 101.254 16.0992ZM99.916 14.1575V13.2861C98.495 13.2621 97.7844 13.6421 97.7844 14.4247C97.7844 14.7196 97.8655 14.9401 98.0315 15.0876C98.1975 15.235 98.4089 15.3081 98.6609 15.3081C98.9437 15.3081 99.208 15.2206 99.4489 15.0468C99.6911 14.8718 99.8398 14.6501 99.8951 14.378C99.9087 14.3169 99.916 14.2426 99.916 14.1575Z" fill="white"/>
<path d="M108.571 16.1001H107.428L107.367 15.1927H107.332C106.967 15.8831 106.345 16.2283 105.471 16.2283C104.772 16.2283 104.191 15.961 103.73 15.4265C103.269 14.8919 103.039 14.1979 103.039 13.3457C103.039 12.4312 103.289 11.6905 103.79 11.1248C104.276 10.5974 104.871 10.3337 105.579 10.3337C106.357 10.3337 106.902 10.589 107.211 11.1008H107.236V7.85742H108.525V14.5779C108.525 15.128 108.54 15.635 108.571 16.1001ZM107.236 13.7173V12.7752C107.236 12.6122 107.224 12.4803 107.2 12.3797C107.128 12.0776 106.972 11.8235 106.734 11.6186C106.495 11.4136 106.206 11.3105 105.873 11.3105C105.392 11.3105 105.016 11.4963 104.739 11.8691C104.465 12.2418 104.326 12.7177 104.326 13.299C104.326 13.8575 104.458 14.3106 104.722 14.6594C105.001 15.0309 105.377 15.2167 105.848 15.2167C106.271 15.2167 106.609 15.0621 106.866 14.7517C107.114 14.4652 107.236 14.12 107.236 13.7173Z" fill="white"/>
<path d="M119.59 13.2274C119.59 14.0963 119.335 14.8083 118.826 15.3668C118.293 15.9409 117.587 16.2274 116.703 16.2274C115.854 16.2274 115.177 15.9529 114.67 15.4016C114.166 14.8514 113.914 14.1575 113.914 13.3208C113.914 12.4459 114.173 11.7279 114.695 11.1706C115.216 10.6133 115.917 10.334 116.8 10.334C117.65 10.334 118.335 10.6085 118.851 11.1586C119.343 11.6932 119.59 12.3836 119.59 13.2274ZM118.255 13.2681C118.255 12.7467 118.139 12.2997 117.909 11.9269C117.638 11.4762 117.254 11.2509 116.753 11.2509C116.236 11.2509 115.843 11.4762 115.571 11.9269C115.34 12.2997 115.226 12.7539 115.226 13.2909C115.226 13.8123 115.341 14.2593 115.571 14.6321C115.85 15.0828 116.239 15.3081 116.74 15.3081C117.232 15.3081 117.619 15.0792 117.897 14.6201C118.134 14.2402 118.255 13.7895 118.255 13.2681Z" fill="white"/>
<path d="M126.516 16.1008H125.229V12.8646C125.229 11.8674 124.84 11.3688 124.06 11.3688C123.677 11.3688 123.369 11.5054 123.13 11.7799C122.892 12.0544 122.773 12.378 122.773 12.7484V16.0996H121.483V12.0652C121.483 11.569 121.468 11.0308 121.438 10.4483H122.568L122.629 11.3316H122.664C122.816 11.0572 123.039 10.8306 123.332 10.6497C123.682 10.4387 124.072 10.332 124.501 10.332C125.041 10.332 125.491 10.5022 125.848 10.8438C126.295 11.2621 126.516 11.8866 126.516 12.716V16.1008Z" fill="white"/>
<path d="M135.19 11.391H133.771V14.1357C133.771 14.8333 134.023 15.1821 134.522 15.1821C134.753 15.1821 134.945 15.1629 135.096 15.1234L135.129 16.0762C134.875 16.1697 134.54 16.2165 134.129 16.2165C133.62 16.2165 133.224 16.0655 132.937 15.7634C132.65 15.4614 132.507 14.9532 132.507 14.24V11.391H131.66V10.4501H132.507V9.41453L133.77 9.04297V10.4489H135.188V11.391H135.19Z" fill="white"/>
<path d="M142.009 16.1001H140.72V12.8879C140.72 11.8751 140.331 11.3681 139.553 11.3681C138.956 11.3681 138.548 11.6617 138.324 12.249C138.286 12.3725 138.264 12.5235 138.264 12.7009V16.0989H136.977V7.85742H138.264V11.2626H138.288C138.694 10.6429 139.275 10.3337 140.029 10.3337C140.562 10.3337 141.004 10.5039 141.354 10.8455C141.791 11.271 142.009 11.9038 142.009 12.7404V16.1001Z" fill="white"/>
<path d="M149.043 13.0078C149.043 13.2332 149.025 13.4225 148.995 13.5772H145.131C145.148 14.1357 145.333 14.5612 145.69 14.8561C146.017 15.1197 146.439 15.2516 146.955 15.2516C147.527 15.2516 148.048 15.1629 148.518 14.9843L148.719 15.8569C148.17 16.0894 147.523 16.2057 146.775 16.2057C145.877 16.2057 145.17 15.948 144.659 15.4326C144.145 14.9172 143.891 14.2256 143.891 13.3578C143.891 12.5056 144.128 11.7961 144.606 11.2303C145.105 10.6263 145.78 10.3242 146.632 10.3242C147.465 10.3242 148.099 10.6263 148.526 11.2303C148.872 11.7098 149.043 12.3031 149.043 13.0078ZM147.813 12.683C147.823 12.3103 147.738 11.989 147.564 11.7182C147.34 11.3694 147 11.1944 146.539 11.1944C146.118 11.1944 145.775 11.3646 145.513 11.7062C145.299 11.9783 145.173 12.3031 145.131 12.683H147.813Z" fill="white"/>
</svg>
