<svg width="38" height="39" viewBox="0 0 38 39" fill="none" xmlns="http://www.w3.org/2000/svg">
<path d="M29.9751 9.61996C27.9568 8.69387 25.7925 8.01156 23.5295 7.62078C23.4883 7.61324 23.4471 7.63209 23.4259 7.66978C23.1475 8.16486 22.8392 8.81072 22.6233 9.31837C20.1893 8.95398 17.7679 8.95398 15.3838 9.31837C15.1679 8.79944 14.8483 8.16486 14.5687 7.66978C14.5475 7.63334 14.5063 7.6145 14.4651 7.62078C12.2034 8.01032 10.0391 8.69262 8.01948 9.61996C8.002 9.6275 7.98701 9.64008 7.97706 9.6564C3.87175 15.7897 2.74713 21.7722 3.29883 27.6805C3.30133 27.7094 3.31755 27.737 3.34002 27.7546C6.04859 29.7437 8.6723 30.9513 11.2473 31.7517C11.2885 31.7643 11.3322 31.7492 11.3584 31.7153C11.9675 30.8835 12.5105 30.0064 12.976 29.084C13.0035 29.03 12.9773 28.9659 12.9211 28.9446C12.0599 28.6179 11.2398 28.2195 10.4509 27.7672C10.3885 27.7308 10.3836 27.6415 10.441 27.5988C10.607 27.4744 10.773 27.345 10.9315 27.2143C10.9602 27.1904 11.0002 27.1854 11.0339 27.2005C16.2163 29.5666 21.8269 29.5666 26.9483 27.2005C26.982 27.1841 27.0219 27.1892 27.0519 27.213C27.2104 27.3437 27.3764 27.4744 27.5437 27.5988C27.6011 27.6415 27.5973 27.7308 27.5349 27.7672C26.7461 28.2283 25.926 28.6179 25.0635 28.9433C25.0074 28.9647 24.9824 29.03 25.0099 29.084C25.4854 30.0051 26.0284 30.8822 26.6262 31.714C26.6512 31.7492 26.6961 31.7643 26.7373 31.7517C29.3248 30.9513 31.9485 29.7437 34.6571 27.7546C34.6808 27.737 34.6958 27.7106 34.6983 27.6817C35.3586 20.8511 33.5924 14.9176 30.0163 9.65765C30.0076 9.64008 29.9926 9.6275 29.9751 9.61996ZM13.7499 24.0829C12.1897 24.0829 10.904 22.6505 10.904 20.8913C10.904 19.1321 12.1647 17.6996 13.7499 17.6996C15.3476 17.6996 16.6208 19.1447 16.5958 20.8913C16.5958 22.6505 15.3351 24.0829 13.7499 24.0829ZM24.2722 24.0829C22.7119 24.0829 21.4263 22.6505 21.4263 20.8913C21.4263 19.1321 22.6869 17.6996 24.2722 17.6996C25.8698 17.6996 27.143 19.1447 27.118 20.8913C27.118 22.6505 25.8698 24.0829 24.2722 24.0829Z" fill="#68769E"/>
</svg>
