<svg width="153" height="44" viewBox="0 0 153 44" fill="none" xmlns="http://www.w3.org/2000/svg">
<path d="M146.465 44H5.63327C2.53638 44 0 41.5236 0 38.5V5.5C0 2.47638 2.53638 2.32537e-06 5.63327 2.32537e-06H146.465C149.562 2.32537e-06 152.098 2.47638 152.098 5.5V38.5C152.098 41.5236 149.562 44 146.465 44Z" fill="white"/>
<path d="M146.465 0.881376C149.073 0.881376 151.196 2.9535 151.196 5.5V38.5C151.196 41.0465 149.073 43.1186 146.465 43.1186H5.63327C3.02507 43.1186 0.902732 41.0465 0.902732 38.5V5.5C0.902732 2.9535 3.02507 0.881376 5.63327 0.881376H146.465ZM146.465 2.32537e-06H5.63327C2.53638 2.32537e-06 0 2.47638 0 5.5V38.5C0 41.5236 2.53638 44 5.63327 44H146.465C149.562 44 152.098 41.5236 152.098 38.5V5.5C152.098 2.47638 149.562 2.32537e-06 146.465 2.32537e-06Z" fill="white"/>
<path d="M53.423 11.2674C53.423 12.1859 53.1413 12.9215 52.5865 13.4702C51.9485 14.1205 51.1176 14.4478 50.0994 14.4478C49.1262 14.4478 48.2953 14.115 47.6137 13.4592C46.9307 12.7937 46.5898 11.9769 46.5898 10.9993C46.5898 10.0217 46.9307 9.20491 47.6137 8.54491C48.2953 7.88353 49.1262 7.55078 50.0994 7.55078C50.5838 7.55078 51.0458 7.64841 51.4866 7.82991C51.926 8.01278 52.2837 8.26028 52.5428 8.56553L51.9541 9.14578C51.5021 8.62466 50.8866 8.36753 50.0994 8.36753C49.3896 8.36753 48.7741 8.60953 48.2517 9.09766C47.7348 9.58716 47.4757 10.221 47.4757 10.9993C47.4757 11.7775 47.7348 12.4169 48.2517 12.9064C48.7741 13.389 49.3896 13.6365 50.0994 13.6365C50.8528 13.6365 51.4866 13.389 51.9865 12.9009C52.3161 12.5778 52.5034 12.1323 52.5527 11.563H50.0994V10.7683H53.3723C53.4117 10.9402 53.423 11.1065 53.423 11.2674Z" fill="black" stroke="black" stroke-width="0.119322" stroke-miterlimit="10"/>
<path d="M58.6166 8.513H55.5422V10.603H58.3138V11.3977H55.5422V13.4877H58.6166V14.2976H54.6719V7.70312H58.6166V8.513Z" fill="black" stroke="black" stroke-width="0.119322" stroke-miterlimit="10"/>
<path d="M62.2795 14.2976H61.4092V8.513H59.5234V7.70312H64.1667V8.513H62.2795V14.2976Z" fill="black" stroke="black" stroke-width="0.119322" stroke-miterlimit="10"/>
<path d="M67.5273 14.2976V7.70312H68.3963V14.2976H67.5273Z" fill="black" stroke="black" stroke-width="0.119322" stroke-miterlimit="10"/>
<path d="M72.2483 14.2976H71.385V8.513H69.4922V7.70312H74.141V8.513H72.2483V14.2976Z" fill="black" stroke="black" stroke-width="0.119322" stroke-miterlimit="10"/>
<path d="M82.9334 13.4482C82.2673 14.115 81.442 14.4478 80.4576 14.4478C79.4676 14.4478 78.6423 14.115 77.9762 13.4482C77.3114 12.7827 76.9805 11.9659 76.9805 10.9993C76.9805 10.0327 77.3114 9.21591 77.9762 8.55041C78.6423 7.88353 79.4676 7.55078 80.4576 7.55078C81.4364 7.55078 82.2617 7.88353 82.9278 8.55591C83.5982 9.22691 83.9291 10.0382 83.9291 10.9993C83.9291 11.9659 83.5982 12.7827 82.9334 13.4482ZM78.6198 12.8954C79.1211 13.389 79.7309 13.6365 80.4576 13.6365C81.1787 13.6365 81.7941 13.389 82.2898 12.8954C82.7898 12.4018 83.0433 11.7679 83.0433 10.9993C83.0433 10.2307 82.7898 9.59678 82.2898 9.10316C81.7941 8.60953 81.1787 8.36203 80.4576 8.36203C79.7309 8.36203 79.1211 8.60953 78.6198 9.10316C78.1198 9.59678 77.8663 10.2307 77.8663 10.9993C77.8663 11.7679 78.1198 12.4018 78.6198 12.8954Z" fill="black" stroke="black" stroke-width="0.119322" stroke-miterlimit="10"/>
<path d="M85.1484 14.2976V7.70312H86.2047L89.4889 12.8319H89.5269L89.4889 11.5641V7.70312H90.3578V14.2976H89.4508L86.0117 8.91587H85.9737L86.0117 10.1891V14.2976H85.1484Z" fill="black" stroke="black" stroke-width="0.119322" stroke-miterlimit="10"/>
<path d="M76.765 23.9269C74.1187 23.9269 71.957 25.8931 71.957 28.606C71.957 31.2969 74.1187 33.2838 76.765 33.2838C79.4168 33.2838 81.5786 31.2969 81.5786 28.606C81.5786 25.8931 79.4168 23.9269 76.765 23.9269ZM76.765 31.4413C75.313 31.4413 74.0638 30.2711 74.0638 28.606C74.0638 26.9189 75.313 25.7694 76.765 25.7694C78.2169 25.7694 79.4718 26.9189 79.4718 28.606C79.4718 30.2711 78.2169 31.4413 76.765 31.4413ZM66.2744 23.9269C63.6225 23.9269 61.4664 25.8931 61.4664 28.606C61.4664 31.2969 63.6225 33.2838 66.2744 33.2838C68.9249 33.2838 71.0824 31.2969 71.0824 28.606C71.0824 25.8931 68.9249 23.9269 66.2744 23.9269ZM66.2744 31.4413C64.821 31.4413 63.5676 30.2711 63.5676 28.606C63.5676 26.9189 64.821 25.7694 66.2744 25.7694C67.7264 25.7694 68.9756 26.9189 68.9756 28.606C68.9756 30.2711 67.7264 31.4413 66.2744 31.4413ZM53.7911 25.361V27.3493H58.654C58.5118 28.4603 58.1315 29.277 57.5485 29.8463C56.8387 30.5338 55.7332 31.2969 53.7911 31.2969C50.7984 31.2969 48.455 28.9388 48.455 26.0169C48.455 23.095 50.7984 20.7369 53.7911 20.7369C55.4092 20.7369 56.5866 21.3543 57.4555 22.1545L58.8906 20.7534C57.6752 19.6204 56.0585 18.75 53.7911 18.75C49.6872 18.75 46.2383 22.0101 46.2383 26.0169C46.2383 30.0236 49.6872 33.2838 53.7911 33.2838C56.0092 33.2838 57.6752 32.5743 58.985 31.2433C60.3271 29.9329 60.7454 28.0904 60.7454 26.6026C60.7454 26.1406 60.7059 25.7158 60.6355 25.361H53.7911ZM104.837 26.9024C104.441 25.856 103.22 23.9269 100.733 23.9269C98.2686 23.9269 96.2167 25.823 96.2167 28.606C96.2167 31.2268 98.2474 33.2838 100.97 33.2838C103.171 33.2838 104.441 31.9734 104.964 31.2103L103.33 30.1474C102.785 30.9256 102.043 31.4413 100.97 31.4413C99.9036 31.4413 99.1389 30.9641 98.6488 30.0236L105.058 27.4345L104.837 26.9024ZM98.3024 28.4603C98.2474 26.6563 99.7374 25.7323 100.805 25.7323C101.641 25.7323 102.351 26.1406 102.588 26.725L98.3024 28.4603ZM93.093 32.9991H95.1998V19.2491H93.093V32.9991ZM89.6426 24.9691H89.5722C89.099 24.4219 88.1963 23.9269 87.0527 23.9269C84.653 23.9269 82.4588 25.9839 82.4588 28.6211C82.4588 31.2433 84.653 33.2838 87.0527 33.2838C88.1963 33.2838 89.099 32.7846 89.5722 32.2209H89.6426V32.8919C89.6426 34.6808 88.6638 35.6419 87.0851 35.6419C85.7979 35.6419 84.9994 34.7344 84.6699 33.9713L82.8376 34.7179C83.3658 35.9581 84.7642 37.4844 87.0851 37.4844C89.5553 37.4844 91.6396 36.0654 91.6396 32.6128V24.2115H89.6426V24.9691ZM87.233 31.4413C85.781 31.4413 84.5656 30.2546 84.5656 28.6211C84.5656 26.9725 85.781 25.7694 87.233 25.7694C88.6638 25.7694 89.7919 26.9725 89.7919 28.6211C89.7919 30.2546 88.6638 31.4413 87.233 31.4413ZM114.701 19.2491H109.662V32.9991H111.763V27.7893H114.701C117.034 27.7893 119.323 26.1406 119.323 23.5185C119.323 20.8978 117.029 19.2491 114.701 19.2491ZM114.756 25.8766H111.763V21.1618H114.756C116.325 21.1618 117.22 22.4336 117.22 23.5185C117.22 24.5828 116.325 25.8766 114.756 25.8766ZM127.745 23.9008C126.226 23.9008 124.648 24.5553 123.999 26.0059L125.863 26.769C126.265 26.0059 127.002 25.7584 127.783 25.7584C128.873 25.7584 129.978 26.3978 129.995 27.5266V27.671C129.615 27.4565 128.801 27.1389 127.8 27.1389C125.791 27.1389 123.745 28.2183 123.745 30.2326C123.745 32.0751 125.39 33.2618 127.239 33.2618C128.653 33.2618 129.433 32.6389 129.923 31.9143H129.995V32.9771H132.025V27.7026C132.025 25.2648 130.16 23.9008 127.745 23.9008ZM127.491 31.4358C126.804 31.4358 125.846 31.103 125.846 30.2711C125.846 29.2069 127.041 28.7985 128.074 28.7985C128.999 28.7985 129.433 28.9979 129.995 29.2605C129.83 30.5338 128.708 31.4358 127.491 31.4358ZM139.418 24.2019L137.003 30.1625H136.931L134.434 24.2019H132.168L135.92 32.5316L133.779 37.1668H135.975L141.756 24.2019H139.418ZM120.478 32.9991H122.585V19.2491H120.478V32.9991Z" fill="black"/>
<path d="M11.7569 8.2926C11.4259 8.63085 11.2344 9.15748 11.2344 9.83948V34.166C11.2344 34.848 11.4259 35.3746 11.7569 35.7129L11.8385 35.7871L25.8006 22.1609V21.8391L11.8385 8.21286L11.7569 8.2926Z" fill="url(#paint0_linear_2792_19324)"/>
<path d="M30.4496 26.7051L25.8008 22.1607V21.839L30.4553 17.2946L30.5595 17.3537L36.0716 20.4158C37.6447 21.2848 37.6447 22.7148 36.0716 23.5893L30.5595 26.646L30.4496 26.7051Z" fill="url(#paint1_linear_2792_19324)"/>
<path d="M30.5603 26.6457L25.8016 21.9996L11.7578 35.7125C12.2803 36.2487 13.1323 36.3134 14.1013 35.7771L30.5603 26.6457Z" fill="url(#paint2_linear_2792_19324)"/>
<path d="M30.5603 17.3539L14.1013 8.2225C13.1323 7.69175 12.2803 7.75638 11.7578 8.29263L25.8016 22L30.5603 17.3539Z" fill="url(#paint3_linear_2792_19324)"/>
<defs>
<linearGradient id="paint0_linear_2792_19324" x1="24.5609" y1="34.4193" x2="6.10559" y2="15.5168" gradientUnits="userSpaceOnUse">
<stop stop-color="#00A0FF"/>
<stop offset="0.0066" stop-color="#00A1FF"/>
<stop offset="0.2601" stop-color="#00BEFF"/>
<stop offset="0.5122" stop-color="#00D2FF"/>
<stop offset="0.7604" stop-color="#00DFFF"/>
<stop offset="1" stop-color="#00E3FF"/>
</linearGradient>
<linearGradient id="paint1_linear_2792_19324" x1="38.1201" y1="21.9983" x2="10.8585" y2="21.9983" gradientUnits="userSpaceOnUse">
<stop stop-color="#FFE000"/>
<stop offset="0.4087" stop-color="#FFBD00"/>
<stop offset="0.7754" stop-color="#FFA500"/>
<stop offset="1" stop-color="#FF9C00"/>
</linearGradient>
<linearGradient id="paint2_linear_2792_19324" x1="27.9726" y1="19.4739" x2="2.94567" y2="-6.15949" gradientUnits="userSpaceOnUse">
<stop stop-color="#FF3A44"/>
<stop offset="1" stop-color="#C31162"/>
</linearGradient>
<linearGradient id="paint3_linear_2792_19324" x1="8.22271" y1="43.8062" x2="19.3984" y2="32.3598" gradientUnits="userSpaceOnUse">
<stop stop-color="#32A071"/>
<stop offset="0.0685" stop-color="#2DA771"/>
<stop offset="0.4762" stop-color="#15CF74"/>
<stop offset="0.8009" stop-color="#06E775"/>
<stop offset="1" stop-color="#00F076"/>
</linearGradient>
</defs>
</svg>
