<svg width="166" height="48" viewBox="0 0 166 48" fill="none" xmlns="http://www.w3.org/2000/svg">
<path d="M159.591 47.9434H6.13812C2.76369 47.9434 0 45.2451 0 41.9505V5.99303C0 2.69843 2.76369 0.000122783 6.13812 0.000122783H159.591C162.966 0.000122783 165.729 2.69843 165.729 5.99303V41.9505C165.729 45.2451 162.966 47.9434 159.591 47.9434Z" fill="black"/>
<path d="M159.591 0.960485C162.433 0.960485 164.746 3.21831 164.746 5.99303V41.9505C164.746 44.7252 162.433 46.983 159.591 46.983H6.13812C3.29617 46.983 0.983633 44.7252 0.983633 41.9505V5.99303C0.983633 3.21831 3.29617 0.960485 6.13812 0.960485H159.591ZM159.591 0.000122783H6.13812C2.76369 0.000122783 0 2.69843 0 5.99303V41.9505C0 45.2451 2.76369 47.9434 6.13812 47.9434H159.591C162.966 47.9434 165.729 45.2451 165.729 41.9505V5.99303C165.729 2.69843 162.966 0.000122783 159.591 0.000122783Z" fill="black"/>
<path d="M58.2112 12.2782C58.2112 13.279 57.9043 14.0806 57.2997 14.6784C56.6045 15.387 55.6991 15.7436 54.5897 15.7436C53.5293 15.7436 52.6239 15.381 51.8812 14.6664C51.137 13.9413 50.7656 13.0513 50.7656 11.9861C50.7656 10.9208 51.137 10.0309 51.8812 9.31173C52.6239 8.59109 53.5293 8.22852 54.5897 8.22852C55.1176 8.22852 55.6209 8.33489 56.1012 8.53266C56.58 8.73192 56.9697 9.0016 57.2521 9.33421L56.6106 9.96646C56.1181 9.39863 55.4475 9.11846 54.5897 9.11846C53.8163 9.11846 53.1457 9.38215 52.5764 9.91402C52.0132 10.4474 51.7308 11.1381 51.7308 11.9861C51.7308 12.8341 52.0132 13.5307 52.5764 14.0641C53.1457 14.59 53.8163 14.8597 54.5897 14.8597C55.4106 14.8597 56.1012 14.59 56.6459 14.0581C57.005 13.706 57.2091 13.2206 57.2628 12.6003H54.5897V11.7344H58.1559C58.1989 11.9216 58.2112 12.1029 58.2112 12.2782Z" fill="white" stroke="white" stroke-width="0.130016" stroke-miterlimit="10"/>
<path d="M63.8685 9.27503H60.5187V11.5523H63.5386V12.4183H60.5187V14.6956H63.8685V15.5781H59.5703V8.39258H63.8685V9.27503Z" fill="white" stroke="white" stroke-width="0.130016" stroke-miterlimit="10"/>
<path d="M67.8624 15.5781H66.9141V9.27503H64.8594V8.39258H69.9187V9.27503H67.8624V15.5781Z" fill="white" stroke="white" stroke-width="0.130016" stroke-miterlimit="10"/>
<path d="M73.5781 15.5781V8.39258H74.5249V15.5781H73.5781Z" fill="white" stroke="white" stroke-width="0.130016" stroke-miterlimit="10"/>
<path d="M78.7218 15.5781H77.7812V9.27503H75.7188V8.39258H80.7842V9.27503H78.7218V15.5781Z" fill="white" stroke="white" stroke-width="0.130016" stroke-miterlimit="10"/>
<path d="M90.3654 14.6544C89.6395 15.381 88.7403 15.7436 87.6677 15.7436C86.5889 15.7436 85.6897 15.381 84.9638 14.6544C84.2395 13.9293 83.8789 13.0393 83.8789 11.9861C83.8789 10.9328 84.2395 10.0429 84.9638 9.31773C85.6897 8.59109 86.5889 8.22852 87.6677 8.22852C88.7342 8.22852 89.6334 8.59109 90.3592 9.32372C91.0897 10.0549 91.4503 10.9388 91.4503 11.9861C91.4503 13.0393 91.0897 13.9293 90.3654 14.6544ZM85.6651 14.0521C86.2114 14.59 86.8758 14.8597 87.6677 14.8597C88.4533 14.8597 89.1239 14.59 89.6641 14.0521C90.2088 13.5143 90.4851 12.8236 90.4851 11.9861C90.4851 11.1486 90.2088 10.4579 89.6641 9.92001C89.1239 9.38215 88.4533 9.11247 87.6677 9.11247C86.8758 9.11247 86.2114 9.38215 85.6651 9.92001C85.1203 10.4579 84.8441 11.1486 84.8441 11.9861C84.8441 12.8236 85.1203 13.5143 85.6651 14.0521Z" fill="white" stroke="white" stroke-width="0.130016" stroke-miterlimit="10"/>
<path d="M92.7812 15.5781V8.39258H93.9321L97.5107 13.981H97.5521L97.5107 12.5996V8.39258H98.4575V15.5781H97.4692L93.7219 9.71401H93.6805L93.7219 11.1014V15.5781H92.7812Z" fill="white" stroke="white" stroke-width="0.130016" stroke-miterlimit="10"/>
<path d="M83.6453 26.0732C80.7619 26.0732 78.4064 28.2157 78.4064 31.1717C78.4064 34.1037 80.7619 36.2686 83.6453 36.2686C86.5348 36.2686 88.8903 34.1037 88.8903 31.1717C88.8903 28.2157 86.5348 26.0732 83.6453 26.0732ZM83.6453 34.261C82.0632 34.261 80.7021 32.986 80.7021 31.1717C80.7021 29.3333 82.0632 28.0808 83.6453 28.0808C85.2274 28.0808 86.5946 29.3333 86.5946 31.1717C86.5946 32.986 85.2274 34.261 83.6453 34.261ZM72.2146 26.0732C69.325 26.0732 66.9757 28.2157 66.9757 31.1717C66.9757 34.1037 69.325 36.2686 72.2146 36.2686C75.1026 36.2686 77.4535 34.1037 77.4535 31.1717C77.4535 28.2157 75.1026 26.0732 72.2146 26.0732ZM72.2146 34.261C70.6309 34.261 69.2652 32.986 69.2652 31.1717C69.2652 29.3333 70.6309 28.0808 72.2146 28.0808C73.7967 28.0808 75.1578 29.3333 75.1578 31.1717C75.1578 32.986 73.7967 34.261 72.2146 34.261ZM58.6125 27.6358V29.8023H63.9112C63.7562 31.0128 63.3419 31.9028 62.7066 32.5231C61.9332 33.2722 60.7286 34.1037 58.6125 34.1037C55.3516 34.1037 52.7982 31.5342 52.7982 28.3505C52.7982 25.1668 55.3516 22.5973 58.6125 22.5973C60.3757 22.5973 61.6585 23.27 62.6053 24.142L64.169 22.6153C62.8447 21.3808 61.0831 20.4324 58.6125 20.4324C54.1409 20.4324 50.3828 23.9847 50.3828 28.3505C50.3828 32.7163 54.1409 36.2686 58.6125 36.2686C61.0294 36.2686 62.8447 35.4955 64.2718 34.0453C65.7342 32.6174 66.19 30.6098 66.19 28.9887C66.19 28.4853 66.147 28.0224 66.0703 27.6358H58.6125ZM114.233 29.3154C113.802 28.1752 112.471 26.0732 109.761 26.0732C107.076 26.0732 104.84 28.1393 104.84 31.1717C104.84 34.0273 107.053 36.2686 110.019 36.2686C112.418 36.2686 113.802 34.8408 114.371 34.0093L112.591 32.8512C111.997 33.6992 111.189 34.261 110.019 34.261C108.858 34.261 108.024 33.7411 107.49 32.7163L114.474 29.8952L114.233 29.3154ZM107.113 31.0128C107.053 29.0472 108.677 28.0404 109.84 28.0404C110.751 28.0404 111.525 28.4853 111.782 29.1221L107.113 31.0128ZM101.437 35.9585H103.732V20.9762H101.437V35.9585ZM97.677 27.2089H97.6003C97.0847 26.6126 96.1011 26.0732 94.855 26.0732C92.2402 26.0732 89.8494 28.3145 89.8494 31.1881C89.8494 34.0453 92.2402 36.2686 94.855 36.2686C96.1011 36.2686 97.0847 35.7248 97.6003 35.1105H97.677V35.8416C97.677 37.7908 96.6105 38.8381 94.8903 38.8381C93.4878 38.8381 92.6177 37.8493 92.2586 37.0177L90.2622 37.8313C90.8376 39.1827 92.3614 40.8457 94.8903 40.8457C97.5819 40.8457 99.853 39.2995 99.853 35.5375V26.3833H97.677V27.2089ZM95.0514 34.261C93.4693 34.261 92.145 32.968 92.145 31.1881C92.145 29.3918 93.4693 28.0808 95.0514 28.0808C96.6105 28.0808 97.8397 29.3918 97.8397 31.1881C97.8397 32.968 96.6105 34.261 95.0514 34.261ZM124.981 20.9762H119.49V35.9585H121.78V30.2817H124.981C127.524 30.2817 130.017 28.4853 130.017 25.6282C130.017 22.7726 127.517 20.9762 124.981 20.9762ZM125.041 28.1977H121.78V23.0603H125.041C126.75 23.0603 127.726 24.4461 127.726 25.6282C127.726 26.7879 126.75 28.1977 125.041 28.1977ZM139.194 26.0447C137.54 26.0447 135.819 26.7579 135.112 28.3385L137.144 29.17C137.581 28.3385 138.385 28.0688 139.235 28.0688C140.423 28.0688 141.627 28.7655 141.646 29.9956V30.1529C141.232 29.9191 140.345 29.5731 139.254 29.5731C137.065 29.5731 134.836 30.7492 134.836 32.9441C134.836 34.9517 136.628 36.2447 138.643 36.2447C140.183 36.2447 141.034 35.566 141.568 34.7764H141.646V35.9345H143.857V30.1873C143.857 27.531 141.825 26.0447 139.194 26.0447ZM138.918 34.255C138.169 34.255 137.125 33.8924 137.125 32.986C137.125 31.8264 138.426 31.3814 139.553 31.3814C140.561 31.3814 141.034 31.5987 141.646 31.8848C141.466 33.2722 140.243 34.255 138.918 34.255ZM151.913 26.3728L149.282 32.8677H149.203L146.483 26.3728H144.014L148.102 35.4491L145.769 40.4996H148.162L154.461 26.3728H151.913ZM131.276 35.9585H133.571V20.9762H131.276V35.9585Z" fill="white"/>
<path d="M12.8115 9.0356C12.4509 9.40416 12.2422 9.97799 12.2422 10.7211V37.2277C12.2422 37.9709 12.4509 38.5447 12.8115 38.9132L12.9005 38.9941L28.1138 24.1467V23.7961L12.9005 8.94871L12.8115 9.0356Z" fill="url(#paint0_linear_2792_17905)"/>
<path d="M33.1788 29.0977L28.1133 24.146V23.7954L33.1849 18.8438L33.2985 18.9082L39.3046 22.2448C41.0187 23.1916 41.0187 24.7498 39.3046 25.7027L33.2985 29.0332L33.1788 29.0977Z" fill="url(#paint1_linear_2792_17905)"/>
<path d="M33.3 29.0343L28.1148 23.9718L12.8125 38.9136C13.3818 39.498 14.3102 39.5684 15.366 38.9841L33.3 29.0343Z" fill="url(#paint2_linear_2792_17905)"/>
<path d="M33.3 18.9102L15.366 8.96043C14.3102 8.38212 13.3818 8.45253 12.8125 9.03684L28.1148 23.9727L33.3 18.9102Z" fill="url(#paint3_linear_2792_17905)"/>
<defs>
<linearGradient id="paint0_linear_2792_17905" x1="26.7631" y1="37.5038" x2="6.65377" y2="16.9072" gradientUnits="userSpaceOnUse">
<stop stop-color="#00A0FF"/>
<stop offset="0.0066" stop-color="#00A1FF"/>
<stop offset="0.2601" stop-color="#00BEFF"/>
<stop offset="0.5122" stop-color="#00D2FF"/>
<stop offset="0.7604" stop-color="#00DFFF"/>
<stop offset="1" stop-color="#00E3FF"/>
</linearGradient>
<linearGradient id="paint1_linear_2792_17905" x1="41.5366" y1="23.969" x2="11.8319" y2="23.969" gradientUnits="userSpaceOnUse">
<stop stop-color="#FFE000"/>
<stop offset="0.4087" stop-color="#FFBD00"/>
<stop offset="0.7754" stop-color="#FFA500"/>
<stop offset="1" stop-color="#FF9C00"/>
</linearGradient>
<linearGradient id="paint2_linear_2792_17905" x1="30.4805" y1="21.2198" x2="3.21062" y2="-6.71086" gradientUnits="userSpaceOnUse">
<stop stop-color="#FF3A44"/>
<stop offset="1" stop-color="#C31162"/>
</linearGradient>
<linearGradient id="paint3_linear_2792_17905" x1="8.96058" y1="47.7331" x2="21.1378" y2="35.2609" gradientUnits="userSpaceOnUse">
<stop stop-color="#32A071"/>
<stop offset="0.0685" stop-color="#2DA771"/>
<stop offset="0.4762" stop-color="#15CF74"/>
<stop offset="0.8009" stop-color="#06E775"/>
<stop offset="1" stop-color="#00F076"/>
</linearGradient>
</defs>
</svg>
