<svg width="135" height="34" viewBox="0 0 135 34" fill="none" xmlns="http://www.w3.org/2000/svg">
<path d="M10.8668 15.5457H16.6964C16.8664 15.5457 17.0159 15.433 17.0626 15.2695L17.608 13.3606C18.045 11.0505 21.9159 11.3002 24.9127 11.55C30.2003 11.55 29.1529 19.6587 28.0717 22.8173C27.8889 23.3512 27.3693 23.6621 26.8049 23.6621H7.86834C6.39728 23.9742 6.73976 26.365 7.20028 27.8963C7.29325 28.2055 7.5847 28.4054 7.90754 28.4029L38.1138 28.1678C38.8551 28.1621 39.45 27.5513 39.4291 26.8103C39.1397 16.5463 37.6463 8.29217 36.7915 4.85415C36.7102 4.52702 36.4193 4.30174 36.0823 4.2931L34.2154 4.24523V4.00495C34.2154 3.6894 33.9596 3.43359 33.644 3.43359H31.4153C31.0998 3.43359 30.844 3.6894 30.844 4.00495V4.24523L10.6207 4.3056C10.1659 4.30696 9.68969 4.39168 9.38183 4.72645C7.59096 6.67387 9.27699 12.3289 10.5185 15.3158C10.577 15.4566 10.7143 15.5457 10.8668 15.5457Z" fill="#4D7AFF"/>
<path d="M37.957 6.21289L38.8582 6.09649C39.6928 5.98869 40.4567 6.57783 40.5645 7.41237L41.0711 11.3347C41.1789 12.1693 40.5898 12.9332 39.7552 13.041L38.854 13.1574L37.957 6.21289Z" fill="#4D7AFF"/>
<ellipse cx="32.5898" cy="10.1132" rx="3.74603" ry="3.74603" fill="white"/>
<g clip-path="url(#clip0_2792_18692)">
<path d="M32.5893 11.7675L32.3328 11.534C31.4218 10.7079 30.8203 10.1613 30.8203 9.49441C30.8203 8.9478 31.2484 8.52148 31.7932 8.52148C32.101 8.52148 32.3965 8.66477 32.5893 8.88943C32.7821 8.66477 33.0775 8.52148 33.3853 8.52148C33.9301 8.52148 34.3582 8.9478 34.3582 9.49441C34.3582 10.1613 33.7568 10.7079 32.8458 11.534L32.5893 11.7675Z" fill="#323232"/>
</g>
<rect width="2.12275" height="1.99788" transform="translate(31.5898 1.49805)" fill="#323232"/>
<rect x="31.0601" y="0.845226" width="3.18097" height="0.558753" fill="#4C7AFF"/>
<rect x="31.0601" y="0.845226" width="3.18097" height="0.558753" stroke="#4C7AFF" stroke-width="0.190452"/>
<rect width="0.624339" height="0.749205" transform="translate(32.3398)" fill="#323232"/>
<rect x="11.4883" y="15.6074" width="1.24868" height="4.37036" fill="#323232"/>
<rect x="12.7383" y="17.7305" width="0.749205" height="0.499471" fill="#323232"/>
<rect x="13.4844" y="17.2324" width="0.49947" height="1.62328" fill="#323232"/>
<rect x="11.8633" y="19.9785" width="0.49947" height="2.37248" fill="#323232"/>
<path d="M13.7968 21.5401L18.0423 22.4766L23.037 23.2883L20.727 27.6586L18.4794 32.0914L13.1725 30.593L8.11536 29.2819L11.4244 24.9115L13.7968 21.5401Z" fill="#FF4C7A"/>
<path d="M12.9681 24.6431L13.8556 23.366L14.0902 23.529L14.4253 23.0468L15.0203 23.175L15.0805 22.8958L16.6428 23.2323L16.5826 23.5116L17.3638 23.6799L17.3718 23.6816L17.3799 23.6829L18.2994 23.8263L18.3435 23.544L20.1825 23.8308L20.1385 24.1131L20.6634 24.1949L20.4151 24.6677L20.668 24.8005L19.7998 26.4532L19.5469 26.3203L19.1128 27.1466L19.1128 27.1466L19.1107 27.1508L18.688 27.9887L18.943 28.1174L18.0977 29.7933L17.8426 29.6646L17.5256 30.293L17.2638 30.22L17.1871 30.4952L16.2113 30.2232L16.288 29.948L15.3121 29.676L15.2354 29.9512L14.2596 29.6792L14.3363 29.404L13.8484 29.268L13.8484 29.268L13.8423 29.2664L12.9122 29.0292L12.8416 29.306L10.9814 28.8315L11.052 28.5547L10.5356 28.423L10.5893 28.3511L10.3604 28.1802L10.9787 27.352L11.2076 27.5229L11.8259 26.6948L11.597 26.5239L12.2152 25.6957L12.4442 25.8666L12.7533 25.4525L12.7534 25.4526L12.759 25.4447L13.2027 24.8061L12.9681 24.6431Z" stroke="#32343A" stroke-width="0.571357" stroke-dasharray="1.33 1.33"/>
<path d="M1.81124 28.0335C0.999606 27.2219 0.0880728 25.2615 2.93505 23.9129C6.49378 22.2272 7.11811 18.5436 4.8705 16.9827C2.62288 15.4219 3.18479 20.6663 7.11811 21.4155C11.0514 22.1647 15.0472 22.1023 15.6715 15.6092C16.2959 9.11609 14.8599 4.99546 19.4176 3.87166C23.0637 2.97261 29.0532 2.62298 31.5922 2.56055" stroke="#323232" stroke-width="0.761809"/>
<ellipse cx="16.1075" cy="8.11533" rx="1.74815" ry="1.74815" fill="white"/>
<path d="M55.8698 24.3438H48.8535C48.5897 24.3438 48.3954 24.2882 48.2705 24.1772C48.1595 24.0523 48.1039 23.8579 48.1039 23.5942V10.1028C48.1039 9.8391 48.1595 9.65172 48.2705 9.54068C48.3954 9.41576 48.5897 9.3533 48.8535 9.3533H55.8698C57.6048 9.3533 58.8887 9.7003 59.7215 10.3943C60.5682 11.0883 60.9916 12.1571 60.9916 13.6006V20.0965C60.9916 21.54 60.5682 22.6087 59.7215 23.3027C58.8887 23.9967 57.6048 24.3438 55.8698 24.3438ZM50.3733 22.4699H55.4118C56.1197 22.4699 56.6957 22.4005 57.1398 22.2617C57.584 22.1091 57.9241 21.9078 58.16 21.658C58.396 21.4081 58.5487 21.1097 58.6181 20.7627C58.7014 20.4157 58.743 20.0409 58.743 19.6384V14.1211C58.743 13.7186 58.7014 13.3438 58.6181 12.9968C58.5348 12.6359 58.3752 12.3306 58.1392 12.0807C57.9032 11.817 57.5632 11.6088 57.119 11.4561C56.6887 11.3034 56.1197 11.2271 55.4118 11.2271H50.3733V22.4699ZM55.4118 11.4353C56.0641 11.4353 56.5916 11.5047 56.9941 11.6435C57.4105 11.7823 57.7297 11.9697 57.9518 12.2057C58.1739 12.4416 58.3266 12.7262 58.4099 13.0593C58.4932 13.3924 58.5348 13.7463 58.5348 14.1211V19.6384C58.5348 20.0132 58.4932 20.3671 58.4099 20.7002C58.3405 21.0195 58.1947 21.2971 57.9727 21.533C57.7506 21.7551 57.4313 21.9356 57.0149 22.0744C56.6124 22.1993 56.078 22.2617 55.4118 22.2617H50.5815V11.4353H55.4118ZM52.8301 13.3299V20.4088H55.3077C55.6408 20.4088 55.8837 20.3255 56.0364 20.1589C56.2029 19.9924 56.2862 19.7356 56.2862 19.3886V14.3293C56.2862 13.9823 56.2029 13.7325 56.0364 13.5798C55.8837 13.4132 55.6408 13.3299 55.3077 13.3299H52.8301ZM65.7405 18.0353C65.7405 17.6605 65.7682 17.3135 65.8238 16.9943C65.8932 16.675 65.9764 16.3766 66.0736 16.099L67.4061 12.6845C67.5449 12.3375 67.6976 12.046 67.8641 11.8101C68.0307 11.5602 68.3222 11.4353 68.7386 11.4353H70.7789C71.1676 11.4353 71.4452 11.5602 71.6117 11.8101C71.7783 12.046 71.9379 12.3445 72.0906 12.7053L73.5272 16.099C73.6244 16.3766 73.7007 16.675 73.7562 16.9943C73.8256 17.3135 73.8603 17.6605 73.8603 18.0353V18.6807H65.7405V18.0353ZM69.0717 13.7255L68.0932 16.8902H71.3619L70.3834 13.7255C70.3278 13.6006 70.2654 13.5104 70.196 13.4549C70.1405 13.3993 70.0711 13.3716 69.9878 13.3716H69.4673C69.384 13.3716 69.3077 13.3993 69.2383 13.4549C69.1827 13.5104 69.1272 13.6006 69.0717 13.7255ZM73.8603 22.4699H74.0685V18.0353C74.0685 17.6466 74.0338 17.2927 73.9644 16.9734C73.9089 16.6403 73.8256 16.3211 73.7146 16.0157L72.278 12.6221C72.1114 12.2195 71.931 11.8864 71.7367 11.6227C71.5562 11.359 71.237 11.2271 70.7789 11.2271H68.7386C68.2667 11.2271 67.9335 11.359 67.7392 11.6227C67.5449 11.8864 67.3714 12.2126 67.2187 12.6012L65.8862 16.0157C65.7752 16.3211 65.685 16.6403 65.6156 16.9734C65.56 17.2927 65.5323 17.6466 65.5323 18.0353V22.4699H65.7405V18.8889H73.8603V22.4699ZM67.885 23.5942C67.885 23.8579 67.8225 24.0523 67.6976 24.1772C67.5865 24.2882 67.3992 24.3438 67.1354 24.3438H64.0749C63.8112 24.3438 63.6168 24.2882 63.4919 24.1772C63.3809 24.0523 63.3254 23.8579 63.3254 23.5942V18.0977C63.3254 17.6813 63.3878 17.2025 63.5127 16.6611C63.6515 16.1198 63.8597 15.4883 64.1373 14.7665L65.9487 10.0404C66.032 9.8044 66.1569 9.6309 66.3234 9.51986C66.5039 9.40882 66.7329 9.3533 67.0105 9.3533H72.6111C72.8748 9.3533 73.09 9.40882 73.2565 9.51986C73.437 9.6309 73.5688 9.8044 73.6521 10.0404L75.4635 14.7665C75.7411 15.4883 75.9423 16.1198 76.0672 16.6611C76.206 17.2025 76.2754 17.6813 76.2754 18.0977V23.5942C76.2754 23.8579 76.213 24.0523 76.0881 24.1772C75.977 24.2882 75.7896 24.3438 75.5259 24.3438H72.3821C72.1045 24.3438 71.8963 24.2882 71.7575 24.1772C71.6326 24.0523 71.5701 23.8579 71.5701 23.5942V20.6794H67.885V23.5942ZM85.8416 11.4353C86.5773 11.4353 87.1186 11.6366 87.4656 12.0391C87.8265 12.4416 88.0069 12.9621 88.0069 13.6006V15.058C88.0069 15.8214 87.8612 16.4113 87.5697 16.8277C87.2782 17.2441 86.7022 17.4523 85.8416 17.4523H81.3028V11.4353H85.8416ZM83.5514 13.1009V15.7659H85.1129C85.4738 15.7659 85.7167 15.6757 85.8416 15.4952C85.9665 15.3009 86.029 15.0649 86.029 14.7873V14.0795C86.029 13.8019 85.9665 13.5728 85.8416 13.3924C85.7167 13.1981 85.4738 13.1009 85.1129 13.1009H83.5514ZM81.3028 22.4699V17.6397H87.1949C87.9861 17.6397 88.569 17.8132 88.9438 18.1602C89.3186 18.4933 89.5059 18.9999 89.5059 19.6801V22.4699H89.7141V19.6801C89.7141 18.9583 89.5059 18.41 89.0895 18.0353C88.6731 17.6466 88.0416 17.4523 87.1949 17.4523H86.9659C87.4656 17.2996 87.7987 17.022 87.9653 16.6195C88.1318 16.2031 88.2151 15.6757 88.2151 15.0372V13.6006C88.2151 12.9205 88.0208 12.3583 87.6321 11.9142C87.2435 11.4561 86.6467 11.2271 85.8416 11.2271H81.0946V22.4699H81.3028ZM82.8019 24.3438H79.5956C79.3319 24.3438 79.1375 24.2882 79.0126 24.1772C78.9016 24.0523 78.8461 23.8579 78.8461 23.5942V10.1028C78.8461 9.8391 78.9016 9.65172 79.0126 9.54068C79.1375 9.41576 79.3319 9.3533 79.5956 9.3533H86.5287C88.0832 9.3533 89.152 9.67948 89.735 10.3318C90.3318 10.9703 90.6302 11.8031 90.6302 12.8303V13.788C90.6302 14.3709 90.54 14.8706 90.3596 15.287C90.193 15.6895 89.8946 15.981 89.4643 16.1615C90.2138 16.2447 90.8176 16.5501 91.2756 17.0775C91.7476 17.605 91.9835 18.3059 91.9835 19.1804V23.5942C91.9835 23.8579 91.9211 24.0523 91.7961 24.1772C91.6851 24.2882 91.4977 24.3438 91.234 24.3438H88.0069C87.7432 24.3438 87.5489 24.2882 87.4239 24.1772C87.3129 24.0523 87.2574 23.8579 87.2574 23.5942V20.4088C87.2574 20.1034 87.1949 19.8813 87.07 19.7425C86.959 19.5898 86.7577 19.5135 86.4662 19.5135H83.5514V23.5942C83.5514 23.8579 83.4889 24.0523 83.364 24.1772C83.253 24.2882 83.0656 24.3438 82.8019 24.3438ZM104.916 24.3438H94.5895C94.3257 24.3438 94.1314 24.2882 94.0065 24.1772C93.8954 24.0523 93.8399 23.8579 93.8399 23.5942V20.8043C93.8399 20.5406 93.8816 20.3116 93.9648 20.1173C94.0481 19.9091 94.18 19.7078 94.3604 19.5135L99.4197 13.3716H94.9642C94.7005 13.3716 94.5062 13.3161 94.3813 13.205C94.2702 13.0801 94.2147 12.8858 94.2147 12.6221V10.1028C94.2147 9.8391 94.2702 9.65172 94.3813 9.54068C94.5062 9.41576 94.7005 9.3533 94.9642 9.3533H104.541C104.805 9.3533 104.993 9.41576 105.104 9.54068C105.229 9.65172 105.291 9.8391 105.291 10.1028V13.205C105.291 13.4826 105.249 13.7255 105.166 13.9337C105.083 14.128 104.951 14.3224 104.77 14.5167L99.9402 20.3671H104.916C105.18 20.3671 105.367 20.4296 105.478 20.5545C105.603 20.6655 105.666 20.8529 105.666 21.1166V23.5942C105.666 23.8579 105.603 24.0523 105.478 24.1772C105.367 24.2882 105.18 24.3438 104.916 24.3438ZM102.73 13.0176C102.827 12.8927 102.911 12.7747 102.98 12.6637C103.049 12.5388 103.084 12.4 103.084 12.2473V11.9142C103.084 11.6782 103.029 11.5047 102.917 11.3937C102.82 11.2826 102.661 11.2271 102.439 11.2271H96.0885V11.4353H102.439C102.55 11.4353 102.647 11.47 102.73 11.5394C102.827 11.5949 102.876 11.7199 102.876 11.9142V12.2057C102.876 12.3445 102.848 12.4555 102.793 12.5388C102.751 12.6221 102.682 12.7262 102.584 12.8511L96.4841 20.6794C96.3869 20.8043 96.3036 20.9293 96.2342 21.0542C96.1648 21.1652 96.1301 21.2971 96.1301 21.4498V21.7829C96.1301 22.0188 96.1787 22.1923 96.2759 22.3034C96.3869 22.4144 96.5535 22.4699 96.7756 22.4699H103.792V22.2617H96.7756C96.6645 22.2617 96.5604 22.234 96.4633 22.1785C96.38 22.1091 96.3383 21.9772 96.3383 21.7829V21.4914C96.3383 21.3526 96.3592 21.2416 96.4008 21.1583C96.4563 21.075 96.5327 20.9709 96.6298 20.846L102.73 13.0176ZM118.473 24.3438H108.813C108.549 24.3438 108.355 24.2882 108.23 24.1772C108.119 24.0523 108.063 23.8579 108.063 23.5942V10.1028C108.063 9.8391 108.119 9.65172 108.23 9.54068C108.355 9.41576 108.549 9.3533 108.813 9.3533H118.473C118.737 9.3533 118.924 9.41576 119.035 9.54068C119.16 9.65172 119.223 9.8391 119.223 10.1028V12.5388C119.223 12.8025 119.16 12.9968 119.035 13.1217C118.924 13.2328 118.737 13.2883 118.473 13.2883H112.727V14.8914H116.787C117.051 14.8914 117.238 14.9539 117.349 15.0788C117.474 15.1899 117.536 15.3772 117.536 15.641V17.8687C117.536 18.1324 117.474 18.3268 117.349 18.4517C117.238 18.5627 117.051 18.6182 116.787 18.6182H112.727V20.4088H118.473C118.737 20.4088 118.924 20.4712 119.035 20.5961C119.16 20.7072 119.223 20.8946 119.223 21.1583V23.5942C119.223 23.8579 119.16 24.0523 119.035 24.1772C118.924 24.2882 118.737 24.3438 118.473 24.3438ZM117.349 22.2617H110.541V16.8693H115.663V16.6611H110.541V11.4353H117.349V11.2271H110.333V22.4699H117.349V22.2617ZM132.096 24.3438H122.435C122.172 24.3438 121.977 24.2882 121.852 24.1772C121.741 24.0523 121.686 23.8579 121.686 23.5942V10.1028C121.686 9.8391 121.741 9.65172 121.852 9.54068C121.977 9.41576 122.172 9.3533 122.435 9.3533H132.096C132.36 9.3533 132.547 9.41576 132.658 9.54068C132.783 9.65172 132.845 9.8391 132.845 10.1028V12.5388C132.845 12.8025 132.783 12.9968 132.658 13.1217C132.547 13.2328 132.36 13.2883 132.096 13.2883H126.349V14.8914H130.409C130.673 14.8914 130.861 14.9539 130.972 15.0788C131.096 15.1899 131.159 15.3772 131.159 15.641V17.8687C131.159 18.1324 131.096 18.3268 130.972 18.4517C130.861 18.5627 130.673 18.6182 130.409 18.6182H126.349V20.4088H132.096C132.36 20.4088 132.547 20.4712 132.658 20.5961C132.783 20.7072 132.845 20.8946 132.845 21.1583V23.5942C132.845 23.8579 132.783 24.0523 132.658 24.1772C132.547 24.2882 132.36 24.3438 132.096 24.3438ZM130.972 22.2617H124.163V16.8693H129.285V16.6611H124.163V11.4353H130.972V11.2271H123.955V22.4699H130.972V22.2617Z" fill="#4D7AFF"/>
<defs>
<clipPath id="clip0_2792_18692">
<rect width="4.2455" height="4.2455" fill="white" transform="translate(30.4688 7.99219)"/>
</clipPath>
</defs>
</svg>
