<svg width="54" height="55" viewBox="0 0 54 55" fill="none" xmlns="http://www.w3.org/2000/svg">
<g filter="url(#filter0_d_2798_19918)">
<rect x="4.26562" y="3.49609" width="46.076" height="46.076" rx="23.038" fill="white"/>
<g clip-path="url(#clip0_2798_19918)">
<path fill-rule="evenodd" clip-rule="evenodd" d="M27.3064 15.457C21.1892 15.457 16.2305 20.4157 16.2305 26.533C16.2305 32.6502 21.1892 37.6089 27.3064 37.6089C33.4237 37.6089 38.3824 32.6502 38.3824 26.533C38.3824 20.4157 33.4237 15.457 27.3064 15.457ZM22.876 22.1026C22.876 21.8089 22.9927 21.5271 23.2005 21.3194C23.4082 21.1117 23.6899 20.995 23.9836 20.995H30.6292C30.923 20.995 31.2047 21.1117 31.4124 21.3194C31.6201 21.5271 31.7368 21.8089 31.7368 22.1026C31.7368 22.3964 31.6201 22.6781 31.4124 22.8858C31.2047 23.0935 30.923 23.2102 30.6292 23.2102H28.9291C29.1273 23.5536 29.2813 23.9246 29.3821 24.3178H30.6292C30.923 24.3178 31.2047 24.4345 31.4124 24.6422C31.6201 24.8499 31.7368 25.1316 31.7368 25.4254C31.7368 25.7191 31.6201 26.0009 31.4124 26.2086C31.2047 26.4163 30.923 26.533 30.6292 26.533H29.3821C29.2119 27.1896 28.8937 27.7985 28.4517 28.3131C28.0098 28.8276 27.4558 29.2341 26.8324 29.5013L29.0786 31.1849C29.3136 31.3611 29.4689 31.6235 29.5105 31.9143C29.552 32.2051 29.4763 32.5005 29.3001 32.7355C29.1238 32.9705 28.8615 33.1259 28.5707 33.1674C28.2799 33.209 27.9845 33.1333 27.7495 32.957L23.3279 29.6409C23.1869 29.5389 23.0723 29.4046 22.9937 29.2493C22.9151 29.0941 22.8748 28.9222 22.876 28.7482C22.876 28.4635 22.9901 28.19 23.1751 27.9917C23.278 27.8801 23.4031 27.7913 23.5423 27.7308C23.6816 27.6704 23.8319 27.6396 23.9836 27.6406H25.0912C25.4801 27.6406 25.8621 27.5382 26.1988 27.3438C26.5355 27.1494 26.8152 26.8697 27.0096 26.533H23.9836C23.6899 26.533 23.4082 26.4163 23.2005 26.2086C22.9927 26.0009 22.876 25.7191 22.876 25.4254C22.876 25.1316 22.9927 24.8499 23.2005 24.6422C23.4082 24.4345 23.6899 24.3178 23.9836 24.3178H27.0096C26.8152 23.9811 26.5355 23.7014 26.1988 23.507C25.8621 23.3126 25.4801 23.2102 25.0912 23.2102H23.9836C23.6899 23.2102 23.4082 23.0935 23.2005 22.8858C22.9927 22.6781 22.876 22.3964 22.876 22.1026Z" fill="#4D7AFF"/>
</g>
</g>
<defs>
<filter id="filter0_d_2798_19918" x="0.721319" y="0.837865" width="53.1628" height="53.1648" filterUnits="userSpaceOnUse" color-interpolation-filters="sRGB">
<feFlood flood-opacity="0" result="BackgroundImageFix"/>
<feColorMatrix in="SourceAlpha" type="matrix" values="0 0 0 0 0 0 0 0 0 0 0 0 0 0 0 0 0 0 127 0" result="hardAlpha"/>
<feOffset dy="0.886076"/>
<feGaussianBlur stdDeviation="1.77215"/>
<feComposite in2="hardAlpha" operator="out"/>
<feColorMatrix type="matrix" values="0 0 0 0 0 0 0 0 0 0 0 0 0 0 0 0 0 0 0.11 0"/>
<feBlend mode="normal" in2="BackgroundImageFix" result="effect1_dropShadow_2798_19918"/>
<feBlend mode="normal" in="SourceGraphic" in2="effect1_dropShadow_2798_19918" result="shape"/>
</filter>
<clipPath id="clip0_2798_19918">
<rect width="26.5823" height="26.5823" fill="white" transform="translate(14.0117 13.2441)"/>
</clipPath>
</defs>
</svg>
