<svg width="55" height="52" viewBox="0 0 55 52" fill="none" xmlns="http://www.w3.org/2000/svg">
<path d="M48.1263 17.334C44.8034 17.334 42.9471 20.454 43.7034 22.7723L35.568 30.4857C34.8805 30.2907 33.8721 30.2907 33.1846 30.4857L27.3409 24.9607C28.1201 22.6423 26.2638 19.5007 22.918 19.5007C19.5951 19.5007 17.7159 22.6207 18.4951 24.9607L8.04505 34.819C5.59297 34.104 2.29297 35.859 2.29297 39.0007C2.29297 41.384 4.35547 43.334 6.8763 43.334C10.1992 43.334 12.0555 40.214 11.2992 37.8957L21.7263 28.0157C22.4138 28.2107 23.4221 28.2107 24.1096 28.0157L29.9534 33.5407C29.1742 35.859 31.0305 39.0007 34.3763 39.0007C37.6992 39.0007 39.5784 35.8807 38.7992 33.5407L46.9575 25.849C49.4096 26.564 52.7096 24.809 52.7096 21.6673C52.7096 19.284 50.6471 17.334 48.1263 17.334Z" fill="#4D7AFF"/>
<path d="M34.3763 19.5L36.5305 15.015L41.2513 13L36.5305 10.985L34.3763 6.5L32.268 10.985L27.5013 13L32.268 15.015L34.3763 19.5ZM8.02214 23.8333L9.16797 19.5L13.7513 18.4167L9.16797 17.3333L8.02214 13L6.8763 17.3333L2.29297 18.4167L6.8763 19.5L8.02214 23.8333Z" fill="#4D7AFF"/>
</svg>
