<svg width="38" height="39" viewBox="0 0 38 39" fill="none" xmlns="http://www.w3.org/2000/svg">
<path fill-rule="evenodd" clip-rule="evenodd" d="M19 5.4375C15.1297 5.4375 14.6452 5.45365 13.1252 5.523C11.608 5.59235 10.5716 5.83365 9.6653 6.1861C8.7153 6.5433 7.85365 7.1038 7.14115 7.8296C6.41651 8.54128 5.85567 9.40232 5.49765 10.3528C5.1471 11.2591 4.90485 12.2965 4.8355 13.8137C4.7671 15.3327 4.75 15.8163 4.75 19.6875C4.75 23.5587 4.76615 24.0423 4.8355 25.5623C4.90485 27.0794 5.14615 28.1159 5.4986 29.0222C5.8558 29.9722 6.4163 30.8338 7.1421 31.5463C7.8538 32.271 8.71483 32.8318 9.6653 33.1898C10.5716 33.5413 11.608 33.7826 13.1252 33.852C14.6452 33.9213 15.1297 33.9375 19 33.9375C22.8703 33.9375 23.3548 33.9213 24.8748 33.852C26.3919 33.7826 27.4284 33.5413 28.3347 33.1889C29.2847 32.8317 30.1463 32.2712 30.8588 31.5454C31.5835 30.8337 32.1443 29.9727 32.5023 29.0222C32.8538 28.1159 33.0951 27.0794 33.1645 25.5623C33.2338 24.0423 33.25 23.5578 33.25 19.6875C33.25 15.8172 33.2338 15.3327 33.1645 13.8127C33.0951 12.2955 32.8538 11.2591 32.5014 10.3528C32.1436 9.40191 31.5828 8.54051 30.8579 7.82865C30.1462 7.10401 29.2852 6.54317 28.3347 6.18515C27.4284 5.8346 26.391 5.59235 24.8739 5.523C23.3548 5.4546 22.8712 5.4375 19 5.4375ZM19 8.00535C22.8047 8.00535 23.256 8.0196 24.7589 8.088C26.1478 8.15165 26.9021 8.3825 27.4046 8.57915C28.0696 8.8366 28.5447 9.1463 29.0434 9.6441C29.5422 10.1428 29.8509 10.6178 30.1084 11.2828C30.3041 11.7854 30.5358 12.5397 30.5995 13.9286C30.6679 15.4315 30.6822 15.8827 30.6822 19.6875C30.6822 23.4922 30.6679 23.9435 30.5995 25.4464C30.5358 26.8353 30.305 27.5896 30.1084 28.0921C29.8803 28.7111 29.5164 29.2711 29.0434 29.7309C28.5837 30.204 28.0237 30.5679 27.4046 30.7959C26.9021 30.9916 26.1478 31.2233 24.7589 31.287C23.256 31.3554 22.8057 31.3697 19 31.3697C15.1943 31.3697 14.744 31.3554 13.2411 31.287C11.8522 31.2233 11.0979 30.9925 10.5953 30.7959C9.97638 30.5678 9.41641 30.2039 8.9566 29.7309C8.48367 29.2711 8.11977 28.7111 7.89165 28.0921C7.69595 27.5896 7.46415 26.8353 7.4005 25.4464C7.3321 23.9435 7.31785 23.4922 7.31785 19.6875C7.31785 15.8827 7.3321 15.4315 7.4005 13.9286C7.46415 12.5397 7.695 11.7854 7.89165 11.2828C8.1491 10.6178 8.4588 10.1428 8.9566 9.6441C9.41634 9.17104 9.97634 8.80713 10.5953 8.57915C11.0979 8.38345 11.8522 8.15165 13.2411 8.088C14.744 8.0196 15.1952 8.00535 19 8.00535V8.00535Z" fill="#68769E"/>
<path fill-rule="evenodd" clip-rule="evenodd" d="M19.0003 24.4417C18.3759 24.4417 17.7576 24.3187 17.1807 24.0797C16.6038 23.8408 16.0797 23.4906 15.6382 23.049C15.1966 22.6075 14.8464 22.0834 14.6075 21.5065C14.3685 20.9296 14.2455 20.3113 14.2455 19.6869C14.2455 19.0625 14.3685 18.4442 14.6075 17.8674C14.8464 17.2905 15.1966 16.7663 15.6382 16.3248C16.0797 15.8833 16.6038 15.5331 17.1807 15.2941C17.7576 15.0552 18.3759 14.9322 19.0003 14.9322C20.2613 14.9322 21.4707 15.4331 22.3624 16.3248C23.2541 17.2165 23.755 18.4259 23.755 19.6869C23.755 20.948 23.2541 22.1574 22.3624 23.049C21.4707 23.9407 20.2613 24.4417 19.0003 24.4417V24.4417ZM19.0003 12.3624C17.0577 12.3624 15.1947 13.1341 13.8211 14.5077C12.4475 15.8813 11.6758 17.7443 11.6758 19.6869C11.6758 21.6295 12.4475 23.4925 13.8211 24.8661C15.1947 26.2397 17.0577 27.0114 19.0003 27.0114C20.9429 27.0114 22.8059 26.2397 24.1795 24.8661C25.5531 23.4925 26.3248 21.6295 26.3248 19.6869C26.3248 17.7443 25.5531 15.8813 24.1795 14.5077C22.8059 13.1341 20.9429 12.3624 19.0003 12.3624V12.3624ZM28.4556 12.2294C28.4556 12.6886 28.2732 13.129 27.9485 13.4537C27.6238 13.7784 27.1834 13.9608 26.7243 13.9608C26.2651 13.9608 25.8247 13.7784 25.5 13.4537C25.1753 13.129 24.9929 12.6886 24.9929 12.2294C24.9929 11.7702 25.1753 11.3299 25.5 11.0052C25.8247 10.6805 26.2651 10.498 26.7243 10.498C27.1834 10.498 27.6238 10.6805 27.9485 11.0052C28.2732 11.3299 28.4556 11.7702 28.4556 12.2294" fill="#68769E"/>
</svg>
