<svg width="53" height="53" viewBox="0 0 53 53" fill="none" xmlns="http://www.w3.org/2000/svg">
<path d="M33.1263 15.4583H19.8763M33.1263 24.2917H19.8763M33.1263 33.125H24.293M11.043 6.625H41.9596V46.375L39.6806 44.4228C38.8802 43.7368 37.8607 43.3597 36.8065 43.3597C35.7523 43.3597 34.7328 43.7368 33.9323 44.4228L31.6533 46.375L29.3766 44.4228C28.5759 43.7362 27.556 43.3588 26.5013 43.3588C25.4466 43.3588 24.4267 43.7362 23.6261 44.4228L21.3493 46.375L19.0703 44.4228C18.2698 43.7368 17.2503 43.3597 16.1961 43.3597C15.1419 43.3597 14.1224 43.7368 13.322 44.4228L11.043 46.375V6.625Z" stroke="#7B71F5" stroke-width="4.41667" stroke-linecap="round" stroke-linejoin="round"/>
</svg>
