<svg width="44" height="45" viewBox="0 0 44 45" fill="none" xmlns="http://www.w3.org/2000/svg">
<g filter="url(#filter0_d_3755_36343)">
<path d="M24.0328 16.7836H24.0594V16.7418L24.0328 16.7836ZM24.0328 16.7836H24.0594V16.7418L24.0328 16.7836ZM24.0328 16.7836H24.0594V16.7418L24.0328 16.7836ZM24.0328 16.7836H24.0594V16.7418L24.0328 16.7836ZM24.0328 16.7836H24.0594V16.7418L24.0328 16.7836ZM24.0328 16.7836H24.0594V16.7418L24.0328 16.7836ZM24.0328 16.7836H24.0594V16.7418L24.0328 16.7836ZM24.0328 16.7836H24.0594V16.7418L24.0328 16.7836ZM24.0328 16.7836H24.0594V16.7418L24.0328 16.7836ZM24.0328 16.7836H24.0594V16.7418L24.0328 16.7836ZM24.0328 16.7836H24.0594V16.7418L24.0328 16.7836ZM24.0328 16.7836H24.0594V16.7418L24.0328 16.7836ZM24.0328 16.7836H24.0594V16.7418L24.0328 16.7836ZM24.0328 16.7836H24.0594V16.7418L24.0328 16.7836ZM24.0328 16.7836H24.0594V16.7418L24.0328 16.7836ZM24.0328 16.7836H24.0594V16.7418L24.0328 16.7836ZM22.3038 1.43164C18.8714 1.43164 15.5161 2.44947 12.6621 4.35642C9.80818 6.26337 7.5838 8.97378 6.27027 12.1449C4.95674 15.3161 4.61306 18.8055 5.28269 22.172C5.95232 25.5384 7.60519 28.6307 10.0323 31.0578C12.4594 33.4849 15.5516 35.1377 18.9181 35.8074C22.2846 36.477 25.774 36.1333 28.9451 34.8198C32.1163 33.5063 34.8267 31.2819 36.7336 28.4279C38.6406 25.574 39.6584 22.2187 39.6584 18.7862C39.6534 14.1851 37.8234 9.77377 34.5698 6.52024C31.3163 3.26671 26.905 1.43667 22.3038 1.43164ZM17.9642 26.599C17.9632 26.676 17.932 26.7494 17.8772 26.8035C17.8224 26.8575 17.7486 26.8878 17.6716 26.8878H14.3276C14.251 26.8878 14.1776 26.8574 14.1234 26.8033C14.0693 26.7491 14.0388 26.6756 14.0388 26.599V15.3624C14.0383 15.3242 14.0454 15.2862 14.0597 15.2508C14.074 15.2153 14.0952 15.183 14.1221 15.1558C14.1489 15.1285 14.1809 15.1069 14.2162 15.0922C14.2515 15.0774 14.2894 15.0698 14.3276 15.0698H17.6716C17.7101 15.0698 17.7481 15.0774 17.7836 15.0921C17.8191 15.1068 17.8514 15.1284 17.8785 15.1555C17.9057 15.1827 17.9272 15.215 17.942 15.2505C17.9567 15.286 17.9642 15.324 17.9642 15.3624V26.599ZM15.8818 13.5688C15.4662 13.5688 15.0599 13.4456 14.7144 13.2147C14.3688 12.9838 14.0994 12.6556 13.9404 12.2716C13.7813 11.8876 13.7397 11.4651 13.8208 11.0575C13.9019 10.6498 14.102 10.2754 14.3959 9.98153C14.6898 9.68764 15.0642 9.4875 15.4719 9.40642C15.8795 9.32534 16.302 9.36695 16.686 9.526C17.07 9.68505 17.3982 9.95439 17.6291 10.3C17.86 10.6455 17.9832 11.0518 17.9832 11.4674C17.9837 11.7435 17.9297 12.017 17.8243 12.2722C17.7189 12.5274 17.5641 12.7592 17.3689 12.9545C17.1736 13.1497 16.9418 13.3045 16.6866 13.4099C16.4314 13.5153 16.1579 13.5693 15.8818 13.5688ZM32.1154 26.599C32.1144 26.676 32.0832 26.7494 32.0284 26.8035C31.9736 26.8575 31.8998 26.8878 31.8228 26.8878H28.4788C28.4409 26.8878 28.4033 26.8804 28.3683 26.8659C28.3333 26.8513 28.3014 26.8301 28.2746 26.8033C28.2478 26.7764 28.2265 26.7446 28.212 26.7096C28.1975 26.6745 28.19 26.637 28.19 26.599V20.5608C28.19 18.9724 27.6238 17.9008 26.2026 17.9008C25.7598 17.9033 25.3285 18.0427 24.968 18.2998C24.6074 18.557 24.3352 18.9193 24.1886 19.3372C24.0884 19.6461 24.0447 19.9705 24.0594 20.2948V26.599C24.0594 26.6766 24.0286 26.7511 23.9737 26.8059C23.9189 26.8608 23.8444 26.8916 23.7668 26.8916H20.4228C20.3846 26.8916 20.3467 26.8841 20.3114 26.8693C20.2761 26.8545 20.2441 26.8329 20.2173 26.8057C20.1904 26.7785 20.1692 26.7462 20.1549 26.7107C20.1406 26.6753 20.1335 26.6373 20.134 26.599C20.134 24.9954 20.1758 17.2092 20.134 15.3776C20.1335 15.3394 20.1406 15.3014 20.1549 15.266C20.1692 15.2305 20.1904 15.1982 20.2173 15.171C20.2441 15.1437 20.2761 15.1221 20.3114 15.1074C20.3467 15.0926 20.3846 15.085 20.4228 15.085H23.7592C23.7978 15.0845 23.8361 15.0917 23.8718 15.1063C23.9075 15.1208 23.94 15.1423 23.9673 15.1696C23.9945 15.1969 24.0161 15.2293 24.0306 15.2651C24.0451 15.3008 24.0523 15.3391 24.0518 15.3776V16.757C24.4073 16.14 24.9249 15.6321 25.5486 15.2885C26.1723 14.9448 26.8781 14.7785 27.5896 14.8076C30.1698 14.8076 32.1078 16.4948 32.1078 20.1276L32.1154 26.599ZM24.0594 16.795V16.7532L24.0328 16.795H24.0594ZM24.0328 16.795H24.0594V16.7532L24.0328 16.795ZM24.0328 16.795H24.0594V16.7532L24.0328 16.795ZM24.0328 16.795H24.0594V16.7532L24.0328 16.795ZM24.0328 16.795H24.0594V16.7532L24.0328 16.795ZM24.0328 16.795H24.0594V16.7532L24.0328 16.795ZM24.0328 16.795H24.0594V16.7532L24.0328 16.795ZM24.0328 16.795H24.0594V16.7532L24.0328 16.795ZM24.0328 16.795H24.0594V16.7532L24.0328 16.795ZM24.0328 16.795H24.0594V16.7532L24.0328 16.795ZM24.0328 16.795H24.0594V16.7532L24.0328 16.795ZM24.0328 16.795H24.0594V16.7532L24.0328 16.795ZM24.0328 16.795H24.0594V16.7532L24.0328 16.795ZM24.0328 16.795H24.0594V16.7532L24.0328 16.795ZM24.0328 16.795H24.0594V16.7532L24.0328 16.795Z" fill="#68769E"/>
</g>
<defs>
<filter id="filter0_d_3755_36343" x="-1" y="0" width="46" height="46" filterUnits="userSpaceOnUse" color-interpolation-filters="sRGB">
<feFlood flood-opacity="0" result="BackgroundImageFix"/>
<feColorMatrix in="SourceAlpha" type="matrix" values="0 0 0 0 0 0 0 0 0 0 0 0 0 0 0 0 0 0 127 0" result="hardAlpha"/>
<feOffset dy="4"/>
<feGaussianBlur stdDeviation="2"/>
<feComposite in2="hardAlpha" operator="out"/>
<feColorMatrix type="matrix" values="0 0 0 0 0 0 0 0 0 0 0 0 0 0 0 0 0 0 0.25 0"/>
<feBlend mode="normal" in2="BackgroundImageFix" result="effect1_dropShadow_3755_36343"/>
<feBlend mode="normal" in="SourceGraphic" in2="effect1_dropShadow_3755_36343" result="shape"/>
</filter>
</defs>
</svg>
