<svg width="38" height="38" viewBox="0 0 38 38" fill="none" xmlns="http://www.w3.org/2000/svg">
<path d="M21.0328 16.7836H21.0594V16.7418L21.0328 16.7836ZM21.0328 16.7836H21.0594V16.7418L21.0328 16.7836ZM21.0328 16.7836H21.0594V16.7418L21.0328 16.7836ZM21.0328 16.7836H21.0594V16.7418L21.0328 16.7836ZM21.0328 16.7836H21.0594V16.7418L21.0328 16.7836ZM21.0328 16.7836H21.0594V16.7418L21.0328 16.7836ZM21.0328 16.7836H21.0594V16.7418L21.0328 16.7836ZM21.0328 16.7836H21.0594V16.7418L21.0328 16.7836ZM21.0328 16.7836H21.0594V16.7418L21.0328 16.7836ZM21.0328 16.7836H21.0594V16.7418L21.0328 16.7836ZM21.0328 16.7836H21.0594V16.7418L21.0328 16.7836ZM21.0328 16.7836H21.0594V16.7418L21.0328 16.7836ZM21.0328 16.7836H21.0594V16.7418L21.0328 16.7836ZM21.0328 16.7836H21.0594V16.7418L21.0328 16.7836ZM21.0328 16.7836H21.0594V16.7418L21.0328 16.7836ZM21.0328 16.7836H21.0594V16.7418L21.0328 16.7836ZM19.3038 1.43164C15.8714 1.43164 12.5161 2.44947 9.66213 4.35642C6.80818 6.26337 4.5838 8.97378 3.27027 12.1449C1.95674 15.3161 1.61306 18.8055 2.28269 22.172C2.95232 25.5384 4.60519 28.6307 7.03227 31.0578C9.45936 33.4849 12.5516 35.1377 15.9181 35.8074C19.2846 36.477 22.774 36.1333 25.9451 34.8198C29.1163 33.5063 31.8267 31.2819 33.7336 28.4279C35.6406 25.574 36.6584 22.2187 36.6584 18.7862C36.6534 14.1851 34.8234 9.77377 31.5698 6.52024C28.3163 3.26671 23.905 1.43667 19.3038 1.43164ZM14.9642 26.599C14.9632 26.676 14.932 26.7494 14.8772 26.8035C14.8224 26.8575 14.7486 26.8878 14.6716 26.8878H11.3276C11.251 26.8878 11.1776 26.8574 11.1234 26.8033C11.0693 26.7491 11.0388 26.6756 11.0388 26.599V15.3624C11.0383 15.3242 11.0454 15.2862 11.0597 15.2508C11.074 15.2153 11.0952 15.183 11.1221 15.1558C11.1489 15.1285 11.1809 15.1069 11.2162 15.0922C11.2515 15.0774 11.2894 15.0698 11.3276 15.0698H14.6716C14.7101 15.0698 14.7481 15.0774 14.7836 15.0921C14.8191 15.1068 14.8514 15.1284 14.8785 15.1555C14.9057 15.1827 14.9272 15.215 14.942 15.2505C14.9567 15.286 14.9642 15.324 14.9642 15.3624V26.599ZM12.8818 13.5688C12.4662 13.5688 12.0599 13.4456 11.7144 13.2147C11.3688 12.9838 11.0994 12.6556 10.9404 12.2716C10.7813 11.8876 10.7397 11.4651 10.8208 11.0575C10.9019 10.6498 11.102 10.2754 11.3959 9.98153C11.6898 9.68764 12.0642 9.4875 12.4719 9.40642C12.8795 9.32534 13.302 9.36695 13.686 9.526C14.07 9.68505 14.3982 9.95439 14.6291 10.3C14.86 10.6455 14.9832 11.0518 14.9832 11.4674C14.9837 11.7435 14.9297 12.017 14.8243 12.2722C14.7189 12.5274 14.5641 12.7592 14.3689 12.9545C14.1736 13.1497 13.9418 13.3045 13.6866 13.4099C13.4314 13.5153 13.1579 13.5693 12.8818 13.5688ZM29.1154 26.599C29.1144 26.676 29.0832 26.7494 29.0284 26.8035C28.9736 26.8575 28.8998 26.8878 28.8228 26.8878H25.4788C25.4409 26.8878 25.4033 26.8804 25.3683 26.8659C25.3333 26.8513 25.3014 26.8301 25.2746 26.8033C25.2478 26.7764 25.2265 26.7446 25.212 26.7096C25.1975 26.6745 25.19 26.637 25.19 26.599V20.5608C25.19 18.9724 24.6238 17.9008 23.2026 17.9008C22.7598 17.9033 22.3285 18.0427 21.968 18.2998C21.6074 18.557 21.3352 18.9193 21.1886 19.3372C21.0884 19.6461 21.0447 19.9705 21.0594 20.2948V26.599C21.0594 26.6766 21.0286 26.7511 20.9737 26.8059C20.9189 26.8608 20.8444 26.8916 20.7668 26.8916H17.4228C17.3846 26.8916 17.3467 26.884 17.3114 26.8693C17.2761 26.8545 17.2441 26.8329 17.2173 26.8057C17.1904 26.7785 17.1692 26.7462 17.1549 26.7107C17.1406 26.6753 17.1335 26.6373 17.134 26.599C17.134 24.9954 17.1758 17.2092 17.134 15.3776C17.1335 15.3394 17.1406 15.3014 17.1549 15.266C17.1692 15.2305 17.1904 15.1982 17.2173 15.171C17.2441 15.1437 17.2761 15.1221 17.3114 15.1074C17.3467 15.0926 17.3846 15.085 17.4228 15.085H20.7592C20.7978 15.0845 20.8361 15.0917 20.8718 15.1063C20.9075 15.1208 20.94 15.1423 20.9673 15.1696C20.9945 15.1969 21.0161 15.2293 21.0306 15.2651C21.0451 15.3008 21.0523 15.3391 21.0518 15.3776V16.757C21.4073 16.14 21.9249 15.6321 22.5486 15.2885C23.1723 14.9448 23.8781 14.7785 24.5896 14.8076C27.1698 14.8076 29.1078 16.4948 29.1078 20.1276L29.1154 26.599ZM21.0594 16.795V16.7532L21.0328 16.795H21.0594ZM21.0328 16.795H21.0594V16.7532L21.0328 16.795ZM21.0328 16.795H21.0594V16.7532L21.0328 16.795ZM21.0328 16.795H21.0594V16.7532L21.0328 16.795ZM21.0328 16.795H21.0594V16.7532L21.0328 16.795ZM21.0328 16.795H21.0594V16.7532L21.0328 16.795ZM21.0328 16.795H21.0594V16.7532L21.0328 16.795ZM21.0328 16.795H21.0594V16.7532L21.0328 16.795ZM21.0328 16.795H21.0594V16.7532L21.0328 16.795ZM21.0328 16.795H21.0594V16.7532L21.0328 16.795ZM21.0328 16.795H21.0594V16.7532L21.0328 16.795ZM21.0328 16.795H21.0594V16.7532L21.0328 16.795ZM21.0328 16.795H21.0594V16.7532L21.0328 16.795ZM21.0328 16.795H21.0594V16.7532L21.0328 16.795ZM21.0328 16.795H21.0594V16.7532L21.0328 16.795Z" fill="#68769E"/>
</svg>
