<svg width="55" height="55" viewBox="0 0 55 55" fill="none" xmlns="http://www.w3.org/2000/svg">
<g filter="url(#filter0_d_2792_18469)">
<rect x="4.46875" y="3.49805" width="46.076" height="46.076" rx="23.038" fill="white"/>
<path d="M23.3522 15.457H20.8601C18.7711 15.457 17.7278 15.457 17.0787 16.1061C16.4297 16.7551 16.4297 17.7985 16.4297 19.8874V22.3795H19.7525C19.9728 22.3795 20.1841 22.467 20.3399 22.6228C20.4957 22.7786 20.5832 22.9899 20.5832 23.2102C20.5832 23.4305 20.4957 23.6418 20.3399 23.7976C20.1841 23.9534 19.9728 24.0409 19.7525 24.0409H16.4297V25.7023H18.6449C18.8652 25.7023 19.0765 25.7898 19.2323 25.9456C19.3881 26.1014 19.4756 26.3127 19.4756 26.533C19.4756 26.7533 19.3881 26.9646 19.2323 27.1204C19.0765 27.2762 18.8652 27.3637 18.6449 27.3637H16.4297V29.0251H19.7525C19.9728 29.0251 20.1841 29.1126 20.3399 29.2684C20.4957 29.4242 20.5832 29.6355 20.5832 29.8558C20.5832 30.0761 20.4957 30.2874 20.3399 30.4432C20.1841 30.599 19.9728 30.6865 19.7525 30.6865H16.4297V32.3479H18.6449C18.8652 32.3479 19.0765 32.4354 19.2323 32.5912C19.3881 32.747 19.4756 32.9582 19.4756 33.1786C19.4756 33.3989 19.3881 33.6102 19.2323 33.766C19.0765 33.9217 18.8652 34.0093 18.6449 34.0093H16.4297C16.4308 35.3827 16.4518 36.1004 16.8029 36.6243C16.9646 36.8663 17.1724 37.074 17.4143 37.2357C17.9726 37.6089 18.7512 37.6089 20.3063 37.6089C21.8613 37.6089 22.64 37.6089 23.1982 37.2357C23.4402 37.074 23.6479 36.8663 23.8096 36.6243C24.1829 36.0661 24.1829 35.2874 24.1829 33.7324V25.4254C24.1829 24.3809 24.1829 23.8593 24.5074 23.5347C24.8319 23.2102 25.3536 23.2102 26.398 23.2102H34.705C36.2601 23.2102 37.0387 23.2102 37.5969 22.8369C37.8389 22.6753 38.0467 22.4675 38.2083 22.2255C38.5816 21.6673 38.5816 20.8887 38.5816 19.3336C38.5816 17.7786 38.5816 16.9999 38.2083 16.4417C38.0467 16.1997 37.8389 15.992 37.5969 15.8303C37.0731 15.4803 36.3553 15.4581 34.9819 15.457V17.6722C34.9819 17.8925 34.8944 18.1038 34.7386 18.2596C34.5828 18.4154 34.3715 18.5029 34.1512 18.5029C33.9309 18.5029 33.7196 18.4154 33.5638 18.2596C33.408 18.1038 33.3205 17.8925 33.3205 17.6722V15.457H31.6591V18.7798C31.6591 19.0001 31.5716 19.2114 31.4158 19.3672C31.26 19.523 31.0487 19.6105 30.8284 19.6105C30.6081 19.6105 30.3968 19.523 30.241 19.3672C30.0853 19.2114 29.9977 19.0001 29.9977 18.7798V15.457H28.3363V17.6722C28.3363 17.8925 28.2488 18.1038 28.093 18.2596C27.9372 18.4154 27.726 18.5029 27.5056 18.5029C27.2853 18.5029 27.074 18.4154 26.9183 18.2596C26.7625 18.1038 26.6749 17.8925 26.6749 17.6722V15.457H25.0136V18.7798C25.0136 19.0001 24.926 19.2114 24.7702 19.3672C24.6145 19.523 24.4032 19.6105 24.1829 19.6105C23.9625 19.6105 23.7513 19.523 23.5955 19.3672C23.4397 19.2114 23.3522 19.0001 23.3522 18.7798V15.457Z" fill="#0DA0DF"/>
</g>
<defs>
<filter id="filter0_d_2792_18469" x="0.924444" y="0.839818" width="53.1628" height="53.1648" filterUnits="userSpaceOnUse" color-interpolation-filters="sRGB">
<feFlood flood-opacity="0" result="BackgroundImageFix"/>
<feColorMatrix in="SourceAlpha" type="matrix" values="0 0 0 0 0 0 0 0 0 0 0 0 0 0 0 0 0 0 127 0" result="hardAlpha"/>
<feOffset dy="0.886076"/>
<feGaussianBlur stdDeviation="1.77215"/>
<feComposite in2="hardAlpha" operator="out"/>
<feColorMatrix type="matrix" values="0 0 0 0 0 0 0 0 0 0 0 0 0 0 0 0 0 0 0.11 0"/>
<feBlend mode="normal" in2="BackgroundImageFix" result="effect1_dropShadow_2792_18469"/>
<feBlend mode="normal" in="SourceGraphic" in2="effect1_dropShadow_2792_18469" result="shape"/>
</filter>
</defs>
</svg>
