<svg width="65" height="64" viewBox="0 0 65 64" fill="none" xmlns="http://www.w3.org/2000/svg">
<rect x="0.996094" width="64" height="64" rx="12.8" fill="white"/>
<path d="M34.5114 37.3473L30.088 32.9761L30.1403 32.9239C33.1705 29.5454 35.3299 25.6619 36.6012 21.5519H41.7038V18.0689H29.5133V14.5859H26.0303V18.0689H13.8398V21.5345H33.2924C32.1256 24.8956 30.2796 28.0825 27.7718 30.8689C26.1522 29.0752 24.8113 27.1073 23.749 25.0349H20.266C21.5373 27.8736 23.2788 30.5555 25.4556 32.9761L16.5914 41.7185L19.0643 44.1914L27.7718 35.4839L33.1879 40.9L34.5114 37.3473ZM44.316 28.5179H40.833L32.9963 49.4159H36.4793L38.4298 44.1914H46.7019L48.6698 49.4159H52.1528L44.316 28.5179ZM39.7533 40.7084L42.5745 33.1677L45.3958 40.7084H39.7533Z" fill="#323232"/>
</svg>
