<svg width="35" height="34" viewBox="0 0 35 34" fill="none" xmlns="http://www.w3.org/2000/svg">
<g clip-path="url(#clip0_2792_18247)">
<path d="M10.4167 16.9994C13.5333 16.9994 16.0833 14.4494 16.0833 11.3327C16.0833 8.21602 13.5333 5.66602 10.4167 5.66602C7.3 5.66602 4.75 8.21602 4.75 11.3327C4.75 14.4494 7.3 16.9994 10.4167 16.9994ZM16.0833 28.3327V20.8244C14.525 20.2577 12.5417 19.8327 10.4167 19.8327C4.89167 19.8327 0.5 22.3827 0.5 25.4994V28.3327H16.0833ZM31.6667 5.66602H21.75C20.1917 5.66602 18.9167 6.94102 18.9167 8.49935V25.4994C18.9167 27.0577 20.1917 28.3327 21.75 28.3327H31.6667C33.225 28.3327 34.5 27.0577 34.5 25.4994V8.49935C34.5 6.94102 33.225 5.66602 31.6667 5.66602ZM26 25.4994H23.1667V8.49935H26V25.4994Z" fill="#4D7AFF"/>
</g>
<defs>
<clipPath id="clip0_2792_18247">
<rect width="34" height="34" fill="white" transform="translate(0.5)"/>
</clipPath>
</defs>
</svg>
