<svg width="44" height="28" viewBox="0 0 44 28" fill="none" xmlns="http://www.w3.org/2000/svg">
<path d="M22 0.65625C23.7018 0.65625 25.3339 1.33229 26.5373 2.53565C27.7406 3.73901 28.4167 5.37111 28.4167 7.07292C28.4167 8.77472 27.7406 10.4068 26.5373 11.6102C25.3339 12.8135 23.7018 13.4896 22 13.4896C20.2982 13.4896 18.6661 12.8135 17.4627 11.6102C16.2594 10.4068 15.5833 8.77472 15.5833 7.07292C15.5833 5.37111 16.2594 3.73901 17.4627 2.53565C18.6661 1.33229 20.2982 0.65625 22 0.65625ZM9.16667 5.23958C10.1933 5.23958 11.1467 5.51458 11.9717 6.00958C11.6967 8.63125 12.4667 11.2346 14.0433 13.2696C13.1267 15.0296 11.2933 16.2396 9.16667 16.2396C7.70798 16.2396 6.30903 15.6601 5.27758 14.6287C4.24613 13.5972 3.66667 12.1983 3.66667 10.7396C3.66667 9.28089 4.24613 7.88195 5.27758 6.8505C6.30903 5.81905 7.70798 5.23958 9.16667 5.23958ZM34.8333 5.23958C36.292 5.23958 37.691 5.81905 38.7224 6.8505C39.7539 7.88195 40.3333 9.28089 40.3333 10.7396C40.3333 12.1983 39.7539 13.5972 38.7224 14.6287C37.691 15.6601 36.292 16.2396 34.8333 16.2396C32.7067 16.2396 30.8733 15.0296 29.9567 13.2696C31.5551 11.206 32.297 8.60595 32.0283 6.00958C32.8533 5.51458 33.8067 5.23958 34.8333 5.23958ZM10.0833 24.0313C10.0833 20.2363 15.4183 17.1563 22 17.1563C28.5817 17.1563 33.9167 20.2363 33.9167 24.0313V27.2396H10.0833V24.0313ZM0 27.2396V24.4896C0 21.9413 3.465 19.7963 8.15833 19.1729C7.07667 20.4196 6.41667 22.1429 6.41667 24.0313V27.2396H0ZM44 27.2396H37.5833V24.0313C37.5833 22.1429 36.9233 20.4196 35.8417 19.1729C40.535 19.7963 44 21.9413 44 24.4896V27.2396Z" fill="#4D7AFF" fill-opacity="0.9"/>
</svg>
