<svg width="35" height="34" viewBox="0 0 35 34" fill="none" xmlns="http://www.w3.org/2000/svg">
<path d="M24.9729 28.6875L29.8958 23.8L28.4083 22.3125L24.9729 25.6771L23.5917 24.2958L22.1042 25.8187L24.9729 28.6875ZM9 12.75H26V9.91667H9V12.75ZM26 32.5833C24.0403 32.5833 22.3696 31.8925 20.9878 30.5107C19.6061 29.129 18.9157 27.4588 18.9167 25.5C18.9167 23.5403 19.6075 21.8696 20.9892 20.4878C22.371 19.1061 24.0412 18.4157 26 18.4167C27.9597 18.4167 29.6304 19.1075 31.0122 20.4892C32.3939 21.871 33.0843 23.5412 33.0833 25.5C33.0833 27.4597 32.3925 29.1304 31.0107 30.5122C29.629 31.8939 27.9588 32.5843 26 32.5833ZM4.75 31.1667V4.25H30.25V16.5396C29.8014 16.3271 29.341 16.15 28.8687 16.0083C28.3965 15.8667 27.9125 15.7604 27.4167 15.6896V7.08333H7.58333V26.9875H16.1896C16.3076 27.7194 16.4909 28.416 16.7392 29.0771C16.9876 29.7382 17.3121 30.3639 17.7125 30.9542L17.5 31.1667L15.375 29.0417L13.25 31.1667L11.125 29.0417L9 31.1667L6.875 29.0417L4.75 31.1667ZM9 24.0833H16.1896C16.2604 23.5875 16.3667 23.1035 16.5083 22.6312C16.65 22.159 16.8271 21.6986 17.0396 21.25H9V24.0833ZM9 18.4167H19.0583C19.9556 17.5431 21.0006 16.8522 22.1934 16.3441C23.3862 15.836 24.6551 15.5824 26 15.5833H9V18.4167Z" fill="#4D7AFF"/>
</svg>
