<svg width="32" height="27" viewBox="0 0 32 27" fill="none" xmlns="http://www.w3.org/2000/svg">
<path d="M28.5927 7.22798C28.612 7.50714 28.612 7.78631 28.612 8.06805C28.612 16.6527 22.0767 26.5535 10.1266 26.5535V26.5483C6.5965 26.5535 3.13973 25.5423 0.167969 23.6357C0.681274 23.6975 1.19715 23.7283 1.71432 23.7296C4.63977 23.7322 7.4816 22.7506 9.78311 20.9431C7.00303 20.8904 4.56515 19.0777 3.7135 16.4314C4.68737 16.6193 5.69082 16.5807 6.64667 16.3195C3.61573 15.7072 1.43515 13.0441 1.43515 9.95145C1.43515 9.92315 1.43515 9.89614 1.43515 9.86912C2.33826 10.3721 3.34943 10.6513 4.38376 10.6822C1.52906 8.77433 0.649112 4.97664 2.37299 2.00745C5.67152 6.06629 10.5383 8.53375 15.7627 8.79491C15.2391 6.53843 15.9543 4.17388 17.6422 2.58765C20.2589 0.127905 24.3743 0.25398 26.8341 2.86939C28.2891 2.58251 29.6836 2.04862 30.9598 1.29217C30.4748 2.79606 29.4598 4.07353 28.1038 4.8853C29.3916 4.7335 30.6498 4.38872 31.8346 3.86255C30.9624 5.16961 29.8638 6.30815 28.5927 7.22798Z" fill="#68769E"/>
</svg>
