<svg width="53" height="53" viewBox="0 0 53 53" fill="none" xmlns="http://www.w3.org/2000/svg">
<g clip-path="url(#clip0_2798_21382)">
<path d="M1.13121 26.1823C1.12997 30.6353 2.30259 34.9834 4.53232 38.8158L0.917969 51.9101L14.423 48.3965C18.1584 50.4142 22.3435 51.4715 26.5965 51.4717H26.6077C40.6475 51.4717 52.0762 40.1357 52.0822 26.2022C52.0849 19.4505 49.4374 13.1016 44.6272 8.32502C39.8179 3.54886 33.4217 0.917144 26.6066 0.914062C12.5651 0.914062 1.13721 12.2495 1.13142 26.1823" fill="url(#paint0_linear_2798_21382)"/>
<path d="M0.221523 26.1746C0.220074 30.7879 1.43473 35.2914 3.74395 39.2611L0 52.8248L13.9893 49.1852C17.8438 51.2705 22.1836 52.37 26.5996 52.3716H26.611C41.1545 52.3716 52.9938 40.6278 53 26.1956C53.0025 19.2012 50.2597 12.6241 45.2777 7.67637C40.2951 2.7293 33.6701 0.00287597 26.611 0C12.065 0 0.22732 11.7422 0.221523 26.1746ZM8.55246 38.5774L8.03012 37.7547C5.83435 34.2904 4.67539 30.287 4.67704 26.1763C4.6818 14.1804 14.5208 4.42078 26.6193 4.42078C32.4782 4.42324 37.9844 6.68951 42.1259 10.8013C46.2671 14.9135 48.5459 20.3799 48.5445 26.1939C48.5391 38.1898 38.6999 47.9506 26.611 47.9506H26.6023C22.666 47.9486 18.8055 46.8997 15.4387 44.9175L14.6375 44.4461L6.33598 46.6057L8.55246 38.5772V38.5774Z" fill="url(#paint1_linear_2798_21382)"/>
<path d="M20.0165 15.2316C19.5225 14.1422 19.0027 14.1203 18.5329 14.1012C18.1483 14.0847 17.7085 14.086 17.2692 14.086C16.8295 14.086 16.115 14.2501 15.5111 14.9044C14.9066 15.5593 13.2031 17.1419 13.2031 20.3607C13.2031 23.5797 15.566 26.6905 15.8954 27.1275C16.2252 27.5636 20.4569 34.3804 27.1589 37.0029C32.7289 39.1823 33.8624 38.7488 35.0712 38.6395C36.2803 38.5307 38.9725 37.0574 39.5218 35.5296C40.0714 34.002 40.0714 32.6927 39.9066 32.419C39.7418 32.1464 39.3021 31.9827 38.6427 31.6557C37.9831 31.3284 34.7414 29.7456 34.1371 29.5272C33.5326 29.3091 33.093 29.2002 32.6533 29.8553C32.2136 30.5094 30.9509 31.9827 30.566 32.419C30.1816 32.8564 29.7967 32.9108 29.1375 32.5836C28.4777 32.2553 26.3542 31.5653 23.8348 29.3366C21.8746 27.6024 20.5513 25.4608 20.1666 24.8057C19.782 24.1516 20.1254 23.7971 20.4561 23.4711C20.7523 23.1779 21.1157 22.7071 21.4457 22.3252C21.7744 21.9431 21.8842 21.6705 22.104 21.2342C22.3241 20.7974 22.214 20.4154 22.0494 20.0881C21.8842 19.7609 20.6028 16.5252 20.0165 15.2316Z" fill="white"/>
</g>
<defs>
<linearGradient id="paint0_linear_2798_21382" x1="2559.13" y1="5100.52" x2="2559.13" y2="0.914062" gradientUnits="userSpaceOnUse">
<stop stop-color="#1FAF38"/>
<stop offset="1" stop-color="#60D669"/>
</linearGradient>
<linearGradient id="paint1_linear_2798_21382" x1="2650" y1="5282.48" x2="2650" y2="0" gradientUnits="userSpaceOnUse">
<stop stop-color="#F9F9F9"/>
<stop offset="1" stop-color="white"/>
</linearGradient>
<clipPath id="clip0_2798_21382">
<rect width="53" height="53" fill="white"/>
</clipPath>
</defs>
</svg>
